<svg width="120" height="120" viewBox="0 0 120 120" fill="none" xmlns="http://www.w3.org/2000/svg">
<mask id="mask0_2254_3646" style="mask-type:alpha" maskUnits="userSpaceOnUse" x="7" y="21" width="106" height="78">
<path d="M7 29C7 24.5817 10.5817 21 15 21H105C109.418 21 113 24.5817 113 29V91C113 95.4183 109.418 99 105 99H15C10.5817 99 7 95.4183 7 91V29Z" fill="url(#paint0_linear_2254_3646)"/>
</mask>
<g mask="url(#mask0_2254_3646)">
<path d="M7 29C7 24.5817 10.5817 21 15 21H105C109.418 21 113 24.5817 113 29V91C113 95.4183 109.418 99 105 99H15C10.5817 99 7 95.4183 7 91V29Z" fill="#455A64"/>
<rect x="7" y="29" width="106" height="2" fill="#263238"/>
<rect x="7" y="35" width="106" height="2" fill="#263238"/>
<rect x="7" y="41" width="106" height="2" fill="#263238"/>
<rect x="7" y="47" width="106" height="2" fill="#263238"/>
<rect x="7" y="53" width="106" height="2" fill="#263238"/>
<rect x="7" y="59" width="106" height="2" fill="#263238"/>
<rect x="7" y="65" width="106" height="2" fill="#263238"/>
<rect x="7" y="71" width="106" height="2" fill="#263238"/>
<rect x="7" y="77" width="106" height="2" fill="#263238"/>
<rect x="7" y="83" width="106" height="2" fill="#263238"/>
<rect x="7" y="89" width="106" height="2" fill="#263238"/>
<path d="M20.5 53.5022C5.01933 51.5946 -2 70.9045 -2 86.5022V118.002H122V85.0022C122 73.2264 114.276 61.9775 102.5 62.0022C92.3972 62.0234 93.0473 77.9448 83 79.0022C67.1477 80.6706 77.9364 43.67 62 44.0022C48.8796 44.2758 52.0709 69.6735 39 68.5022C29.736 67.6721 29.7313 54.6398 20.5 53.5022Z" fill="#F06292" fill-opacity="0.6"/>
<path fill-rule="evenodd" clip-rule="evenodd" d="M65.6031 47.0604C64.7336 46.387 63.6154 45.969 62.0417 46.0018C59.5555 46.0536 57.8207 47.237 56.3254 49.2885C54.7604 51.4357 53.6143 54.3227 52.3522 57.5021L52.3372 57.5398C51.1281 60.5856 49.792 63.9512 47.8359 66.442C45.7675 69.0757 42.9017 70.8599 38.8215 70.4942C33.1944 69.99 30.3899 65.7384 28.1842 62.3945C28.1455 62.3358 28.107 62.2774 28.0686 62.2193C25.6562 58.5648 23.8159 55.926 20.2554 55.4872C13.5994 54.667 8.63839 58.3038 5.18655 64.4206C1.70918 70.5827 0 78.9474 0 86.5022V116.002H120V85.0022C120 73.8753 112.766 63.9807 102.504 64.0022C100.597 64.0062 99.2287 64.726 98.016 65.9351C96.7219 67.2252 95.6678 69.0064 94.4648 71.1074C94.3794 71.2565 94.2932 71.4078 94.2058 71.561C92.0245 75.3868 89.1879 80.362 83.2093 80.9912C80.8288 81.2418 78.7754 80.7726 77.076 79.618C75.4158 78.4901 74.2751 76.8315 73.4512 75.0178C71.8601 71.5152 71.1927 66.8074 70.5752 62.4526L70.5514 62.2841C69.9004 57.6942 69.2871 53.4572 67.9412 50.3632C67.2833 48.8509 66.5098 47.7626 65.6031 47.0604ZM79.3239 76.3094C80.1309 76.8577 81.2081 77.1798 82.7907 77.0132C86.6201 76.6102 88.4993 73.4761 90.9936 69.1198C92.1468 67.1057 93.4524 64.8365 95.1919 63.1023C97.0126 61.2871 99.3511 60.0088 102.496 60.0022C115.786 59.9744 124 72.5776 124 85.0022V120.002H-4V86.5022C-4 78.4593 -2.19952 69.3702 1.70295 62.4548C5.63094 55.4941 11.9199 50.4298 20.7446 51.5172C26.2553 52.1963 29.0339 56.414 31.2179 59.7291C31.2814 59.8254 31.3444 59.921 31.4069 60.0157C33.8093 63.655 35.6404 66.1932 39.1785 66.5102C41.6337 66.7302 43.2706 65.7788 44.6901 63.9714C46.2202 62.0231 47.3564 59.2454 48.6226 56.0561C48.6617 55.9576 48.7009 55.8586 48.7403 55.7594C49.9185 52.7891 51.225 49.4952 53.0929 46.9324C55.0979 44.1815 57.8843 42.0876 61.9583 42.0027C64.3687 41.9524 66.3995 42.6179 68.0523 43.8979C69.6678 45.1491 70.7898 46.8839 71.6092 48.7676C73.1908 52.4033 73.8634 57.149 74.48 61.4989L74.5117 61.7224C75.1639 66.3209 75.771 70.4532 77.093 73.3634C77.736 74.7787 78.4776 75.7344 79.3239 76.3094Z" fill="#D81B60"/>
</g>
<defs>
<linearGradient id="paint0_linear_2254_3646" x1="60" y1="21" x2="60" y2="99" gradientUnits="userSpaceOnUse">
<stop stop-color="#455A64"/>
<stop offset="1" stop-color="#37474F"/>
</linearGradient>
</defs>
</svg>
