<svg width="120" height="120" viewBox="0 0 120 120" fill="none" xmlns="http://www.w3.org/2000/svg">
<mask id="mask0_2254_3506" style="mask-type:alpha" maskUnits="userSpaceOnUse" x="1" y="12" width="118" height="96">
<path d="M102.234 12C105.677 12 108.734 14.2034 109.823 17.4702L117.717 41.1509C120.381 49.1425 115.623 57.3593 108 59.4775V100C108 104.418 104.418 108 99.9999 108H19.9999C15.5817 108 11.9999 104.418 11.9999 100V59.4775C4.37736 57.3593 -0.380907 49.1425 2.28297 41.1509L10.1765 17.4702C11.2655 14.2034 14.3226 12 17.766 12H102.234Z" fill="white"/>
</mask>
<g mask="url(#mask0_2254_3506)">
<path d="M12 20C12 15.5817 15.5817 12 20 12H100C104.418 12 108 15.5817 108 20V100C108 104.418 104.418 108 100 108H20C15.5817 108 12 104.418 12 100V20Z" fill="#FFE082"/>
<path d="M29.9943 48.0337L30.848 42.9115L35.9999 12H17.766C14.3226 12 11.2655 14.2034 10.1765 17.4702L2.28297 41.1509C-0.808027 50.4239 6.09403 60 15.8686 60C22.8691 60 28.8434 54.9389 29.9943 48.0337Z" fill="#F44336"/>
<path d="M74.6757 60C83.7445 60 90.6428 51.8569 89.1519 42.9115L83.9999 12H59.9999V45.3242C59.9999 53.4294 66.5705 60 74.6757 60Z" fill="#F44336"/>
<path d="M45.3241 60C53.4294 60 59.9999 53.4294 59.9999 45.3242V12H35.9999L30.848 42.9115C29.3571 51.8569 36.2554 60 45.3241 60Z" fill="#E57373"/>
<path d="M104.131 60C113.906 60 120.808 50.4239 117.717 41.1509L109.823 17.4702C108.734 14.2034 105.677 12 102.234 12H83.9999L89.1519 42.9115L90.0056 48.0337C91.1564 54.9389 97.1308 60 104.131 60Z" fill="#E57373"/>
<path d="M28 70C28 68.8954 28.8954 68 30 68H50C51.1046 68 52 68.8954 52 70V108H28V70Z" fill="url(#paint0_linear_2254_3506)"/>
<path d="M68 70C68 68.8954 68.8954 68 70 68H90C91.1046 68 92 68.8954 92 70V84C92 85.1046 91.1046 86 90 86H70C68.8954 86 68 85.1046 68 84V70Z" fill="#0288D1"/>
</g>
<defs>
<linearGradient id="paint0_linear_2254_3506" x1="40" y1="68" x2="40" y2="108" gradientUnits="userSpaceOnUse">
<stop stop-color="#795548"/>
<stop offset="1" stop-color="#5D4037"/>
</linearGradient>
</defs>
</svg>
