<svg width="120" height="120" viewBox="0 0 120 120" fill="none" xmlns="http://www.w3.org/2000/svg">
<mask id="mask0_2254_3593" style="mask-type:alpha" maskUnits="userSpaceOnUse" x="8" y="8" width="104" height="104">
<circle cx="60" cy="60" r="52" fill="white"/>
</mask>
<g mask="url(#mask0_2254_3593)">
<circle cx="60" cy="60" r="52" fill="#00BCD4"/>
<path d="M104.954 50.0426C106.042 49.8508 107.079 50.5771 107.271 51.6649C107.463 52.7527 106.736 53.79 105.648 53.9818L46.56 64.4007C45.4722 64.5925 44.4349 63.8662 44.2431 62.7784C44.0513 61.6906 44.7777 60.6533 45.8654 60.4615L104.954 50.0426Z" fill="#E0E0E0"/>
<path d="M73.5081 91.2655C73.8859 92.3035 73.3507 93.4511 72.3127 93.8289C71.2748 94.2067 70.1271 93.6715 69.7493 92.6336L53.3323 47.5283C52.9546 46.4904 53.4897 45.3427 54.5277 44.9649C55.5656 44.5871 56.7133 45.1223 57.0911 46.1603L73.5081 91.2655Z" fill="#BDBDBD"/>
<path d="M32.4749 54.1312C32.3372 52.3551 31.0163 50.8277 29.1807 50.5041C27.0052 50.1205 24.9305 51.5731 24.5469 53.7487C24.1633 55.9243 25.616 57.9989 27.7915 58.3825C29.6271 58.7062 31.3907 57.7227 32.1276 56.1008L78.5377 64.2842C79.0816 64.3801 79.6002 64.0169 79.6961 63.473C79.792 62.9291 79.4289 62.4104 78.885 62.3145L32.4749 54.1312Z" fill="#E91E63"/>
<circle cx="60" cy="60" r="8" fill="#E0F7FA"/>
<path d="M59 17C59 16.4477 59.4477 16 60 16C60.5523 16 61 16.4477 61 17V27C61 27.5523 60.5523 28 60 28C59.4477 28 59 27.5523 59 27V17Z" fill="#0097A7"/>
<path d="M59 103C59 103.552 59.4477 104 60 104C60.5523 104 61 103.552 61 103V93C61 92.4477 60.5523 92 60 92C59.4477 92 59 92.4477 59 93V103Z" fill="#0097A7"/>
<path d="M37.634 23.2609C37.3579 22.7826 37.5218 22.171 38 21.8949C38.4783 21.6187 39.0899 21.7826 39.3661 22.2609L44.3661 30.9212C44.6422 31.3995 44.4783 32.011 44 32.2872C43.5218 32.5633 42.9102 32.3995 42.634 31.9212L37.634 23.2609Z" fill="#0097A7"/>
<path d="M80.634 97.7391C80.9102 98.2174 81.5218 98.3813 82 98.1051C82.4783 97.829 82.6422 97.2174 82.3661 96.7391L77.3661 88.0788C77.0899 87.6005 76.4783 87.4367 76 87.7128C75.5218 87.989 75.3579 88.6005 75.634 89.0788L80.634 97.7391Z" fill="#0097A7"/>
<path d="M22.2608 39.366C21.7825 39.0899 21.6186 38.4783 21.8948 38C22.1709 37.5217 22.7825 37.3578 23.2608 37.634L31.921 42.634C32.3993 42.9101 32.5632 43.5217 32.2871 44C32.0109 44.4783 31.3993 44.6422 30.921 44.366L22.2608 39.366Z" fill="#0097A7"/>
<path d="M96.739 82.366C97.2173 82.6422 97.8288 82.4783 98.105 82C98.3811 81.5217 98.2173 80.9101 97.739 80.634L89.0787 75.634C88.6004 75.3578 87.9888 75.5217 87.7127 76C87.4365 76.4783 87.6004 77.0899 88.0787 77.366L96.739 82.366Z" fill="#0097A7"/>
<path d="M17 61C16.4477 61 16 60.5523 16 60C16 59.4477 16.4477 59 17 59H27C27.5523 59 28 59.4477 28 60C28 60.5523 27.5523 61 27 61H17Z" fill="#0097A7"/>
<path d="M103 61C103.552 61 104 60.5523 104 60C104 59.4477 103.552 59 103 59H93C92.4477 59 92 59.4477 92 60C92 60.5523 92.4477 61 93 61H103Z" fill="#0097A7"/>
<path d="M23.2608 82.366C22.7825 82.6422 22.1709 82.4783 21.8948 82C21.6186 81.5217 21.7825 80.9101 22.2608 80.634L30.921 75.634C31.3993 75.3578 32.0109 75.5217 32.2871 76C32.5632 76.4783 32.3993 77.0899 31.921 77.366L23.2608 82.366Z" fill="#0097A7"/>
<path d="M97.739 39.366C98.2173 39.0899 98.3811 38.4783 98.105 38C97.8288 37.5217 97.2173 37.3578 96.739 37.634L88.0787 42.634C87.6004 42.9101 87.4365 43.5217 87.7127 44C87.9888 44.4783 88.6004 44.6422 89.0787 44.366L97.739 39.366Z" fill="#0097A7"/>
<path d="M39.3659 97.7391C39.0898 98.2174 38.4782 98.3813 37.9999 98.1051C37.5216 97.829 37.3578 97.2174 37.6339 96.7391L42.6339 88.0788C42.91 87.6005 43.5216 87.4367 43.9999 87.7128C44.4782 87.989 44.6421 88.6005 44.3659 89.0788L39.3659 97.7391Z" fill="#0097A7"/>
<path d="M82.3659 23.2609C82.6421 22.7826 82.4782 22.171 81.9999 21.8949C81.5216 21.6187 80.91 21.7826 80.6339 22.2609L75.6339 30.9212C75.3578 31.3995 75.5216 32.011 75.9999 32.2872C76.4782 32.5633 77.0898 32.3995 77.3659 31.9212L82.3659 23.2609Z" fill="#0097A7"/>
</g>
</svg>
