<svg width="120" height="120" viewBox="0 0 120 120" fill="none" xmlns="http://www.w3.org/2000/svg">
<mask id="mask0_2254_3680" style="mask-type:alpha" maskUnits="userSpaceOnUse" x="8" y="14" width="104" height="92">
<path d="M16 14C11.5817 14 8 17.5817 8 22V78C8 82.4183 11.5817 86 16 86H44V95.117C44 96.8387 42.8983 98.3672 41.2649 98.9117L32 102V106H88V102L78.7351 98.9117C77.1017 98.3672 76 96.8387 76 95.117V86H104C108.418 86 112 82.4183 112 78V22C112 17.5817 108.418 14 104 14H16Z" fill="#D9D9D9"/>
</mask>
<g mask="url(#mask0_2254_3680)">
<path fill-rule="evenodd" clip-rule="evenodd" d="M76 82H44V95.117C44 96.8387 42.8983 98.3672 41.2649 98.9117L32 102H88L78.7351 98.9117C77.1017 98.3672 76 96.8387 76 95.117V82Z" fill="#00897B"/>
<path d="M32 102V106H88V102H32Z" fill="#00897B"/>
<path d="M7.99999 22C7.99999 17.5817 11.5817 14 16 14L104 14C108.418 14 112 17.5817 112 22L112 78C112 82.4183 108.418 86 104 86L16 86C11.5817 86 7.99999 82.4183 7.99999 78L7.99999 22Z" fill="#26A69A"/>
<path d="M12 22C12 19.7909 13.7909 18 16 18H104C106.209 18 108 19.7909 108 22V78C108 80.2091 106.209 82 104 82H16C13.7909 82 12 80.2091 12 78V22Z" fill="#212121"/>
<path d="M20 33C20 32.4477 20.4477 32 21 32H26C26.5523 32 27 32.4477 27 33C27 33.5523 26.5523 34 26 34H21C20.4477 34 20 33.5523 20 33Z" fill="#FFA000"/>
<path d="M29 33C29 32.4477 29.4477 32 30 32H61C61.5523 32 62 32.4477 62 33C62 33.5523 61.5523 34 61 34H30C29.4477 34 29 33.5523 29 33Z" fill="#FFA000"/>
<path d="M64 33C64 32.4477 64.4477 32 65 32H77C77.5523 32 78 32.4477 78 33C78 33.5523 77.5523 34 77 34H65C64.4477 34 64 33.5523 64 33Z" fill="#FFA000"/>
<path d="M20 63C20 62.4477 20.4477 62 21 62H53C53.5523 62 54 62.4477 54 63C54 63.5523 53.5523 64 53 64H21C20.4477 64 20 63.5523 20 63Z" fill="#FFA000"/>
<path d="M20 69C20 68.4477 20.4477 68 21 68H34C34.5523 68 35 68.4477 35 69C35 69.5523 34.5523 70 34 70H21C20.4477 70 20 69.5523 20 69Z" fill="#FFA000"/>
<path d="M56 63C56 62.4477 56.4477 62 57 62H88C88.5523 62 89 62.4477 89 63C89 63.5523 88.5523 64 88 64H57C56.4477 64 56 63.5523 56 63Z" fill="#FFA000"/>
<path d="M20 45C20 44.4477 20.4477 44 21 44H46C46.5523 44 47 44.4477 47 45C47 45.5523 46.5523 46 46 46H21C20.4477 46 20 45.5523 20 45Z" fill="#E53935"/>
<path d="M49 45C49 44.4477 49.4477 44 50 44H63C63.5523 44 64 44.4477 64 45C64 45.5523 63.5523 46 63 46H50C49.4477 46 49 45.5523 49 45Z" fill="#E53935"/>
<path d="M66 45C66 44.4477 66.4477 44 67 44H99C99.5523 44 100 44.4477 100 45C100 45.5523 99.5523 46 99 46H67C66.4477 46 66 45.5523 66 45Z" fill="#E53935"/>
<path d="M20 51C20 50.4477 20.4477 50 21 50H41C41.5523 50 42 50.4477 42 51C42 51.5523 41.5523 52 41 52H21C20.4477 52 20 51.5523 20 51Z" fill="#E53935"/>
<path d="M20 27C20 26.4477 20.4477 26 21 26H51C51.5523 26 52 26.4477 52 27C52 27.5523 51.5523 28 51 28H21C20.4477 28 20 27.5523 20 27Z" fill="#FAFAFA"/>
<path d="M54 27C54 26.4477 54.4477 26 55 26H59C59.5523 26 60 26.4477 60 27C60 27.5523 59.5523 28 59 28H55C54.4477 28 54 27.5523 54 27Z" fill="#FAFAFA"/>
<path d="M20 39C20 38.4477 20.4477 38 21 38H39C39.5523 38 40 38.4477 40 39C40 39.5523 39.5523 40 39 40H21C20.4477 40 20 39.5523 20 39Z" fill="#FAFAFA"/>
<path d="M42 39C42 38.4477 42.4477 38 43 38H92C92.5523 38 93 38.4477 93 39C93 39.5523 92.5523 40 92 40H43C42.4477 40 42 39.5523 42 39Z" fill="#FAFAFA"/>
<path d="M20 57C20 56.4477 20.4477 56 21 56H63C63.5523 56 64 56.4477 64 57C64 57.5523 63.5523 58 63 58H21C20.4477 58 20 57.5523 20 57Z" fill="#FAFAFA"/>
<path d="M66 57C66 56.4477 66.4477 56 67 56H77C77.5523 56 78 56.4477 78 57C78 57.5523 77.5523 58 77 58H67C66.4477 58 66 57.5523 66 57Z" fill="#FAFAFA"/>
<path d="M80 57C80 56.4477 80.4477 56 81 56H83C83.5523 56 84 56.4477 84 57C84 57.5523 83.5523 58 83 58H81C80.4477 58 80 57.5523 80 57Z" fill="#FAFAFA"/>
</g>
</svg>
