<?xml version="1.0" standalone="no"?><!-- Generator: Gravit.io --><svg xmlns="http://www.w3.org/2000/svg" xmlns:xlink="http://www.w3.org/1999/xlink" style="isolation:isolate" viewBox="0 0 2048 2048" width="2048" height="2048"><defs><clipPath id="_clipPath_JW9p4PWE4WgbmxBLJ7dj1UQigJetWpFS"><rect width="2048" height="2048"/></clipPath></defs><g clip-path="url(#_clipPath_JW9p4PWE4WgbmxBLJ7dj1UQigJetWpFS)"><circle vector-effect="non-scaling-stroke" cx="1024.0000000000005" cy="1024.0000000000005" r="1024.0000000000005" fill="rgb(255,255,255)"/><clipPath id="_clipPath_TlmkxvfLtLSAFhIfrVq2He1rn4Nuq7Kp"><circle vector-effect="non-scaling-stroke" cx="1024.0000000000005" cy="1024.0000000000005" r="1024.0000000000005" fill="rgb(255,255,255)"/></clipPath><g clip-path="url(#_clipPath_TlmkxvfLtLSAFhIfrVq2He1rn4Nuq7Kp)"><clipPath id="_clipPath_moGo0ZX8qjSwTOL0OMw0frucinNE70Er"><rect x="0" y="0" width="4096" height="2048" transform="matrix(1,0,0,1,0,0)" fill="rgb(255,255,255)"/></clipPath><g clip-path="url(#_clipPath_moGo0ZX8qjSwTOL0OMw0frucinNE70Er)"><g><rect x="-512" y="-512" width="1536" height="1536" transform="matrix(1,0,0,1,0,0)" fill="rgb(117,117,117)"/><rect x="-512" y="1024" width="1536" height="1536" transform="matrix(1,0,0,1,0,0)" fill="rgb(97,97,97)"/><rect x="1024" y="-512" width="1536" height="1536" transform="matrix(1,0,0,1,0,0)" fill="rgb(81,81,81)"/><rect x="1024" y="1024" width="1536" height="1536" transform="matrix(1,0,0,1,0,0)" fill="rgb(124,179,66)"/><g><path d=" M 863.999 1440 L 671.999 1440 L 671.999 1632 L 608 1632 L 608 1440 L 416 1440 L 416 1376 L 608 1376 L 608 1184 L 671.999 1184 L 671.999 1376 L 863.999 1376 L 863.999 1440 Z " fill="rgb(255,255,255)"/><path d=" M 256 1024 L 1024 1024 L 1024 1792 L 256 1792 L 256 1024 Z " fill="none"/></g><g><path d=" M 863.999 671.999 L 416 671.999 L 416 608.001 L 863.999 608.001 L 863.999 671.999 Z " fill="rgb(255,255,255)"/><path d=" M 256 256 L 1024 256 L 1024 1024 L 256 1024 L 256 256 Z " fill="none"/></g><g><path d=" M 1631.999 461.121 L 1586.879 416.001 L 1408 594.88 L 1229.12 416.001 L 1184 461.121 L 1362.88 640 L 1184 818.88 L 1229.12 863.999 L 1408 685.12 L 1586.879 863.999 L 1631.999 818.88 L 1453.12 640 L 1631.999 461.121 Z " fill="rgb(255,255,255)"/><path d=" M 1024 256 L 1792 256 L 1792 1024 L 1024 1024 L 1024 256 Z " fill="none"/></g><path d=" M 1622.125 1336.47 L 1193.875 1336.47 L 1193.875 1264.938 L 1622.125 1264.938 L 1622.125 1336.47 Z  M 1622.125 1551.063 L 1193.875 1551.063 L 1193.875 1479.532 L 1622.125 1479.532 L 1622.125 1551.063 Z " fill="rgb(255,255,255)"/></g></g></g></g></svg>