<svg width="120" height="120" viewBox="0 0 120 120" fill="none" xmlns="http://www.w3.org/2000/svg">
<mask id="mask0_2249_3935" style="mask-type:alpha" maskUnits="userSpaceOnUse" x="8" y="14" width="104" height="92">
<path d="M16 14C11.5817 14 8 17.5817 8 22V78C8 82.4183 11.5817 86 16 86H44V95.117C44 96.8387 42.8983 98.3672 41.2649 98.9117L32 102V106H88V102L78.7351 98.9117C77.1017 98.3672 76 96.8387 76 95.117V86H104C108.418 86 112 82.4183 112 78V22C112 17.5817 108.418 14 104 14H16Z" fill="#D9D9D9"/>
</mask>
<g mask="url(#mask0_2249_3935)">
<path d="M44 82H76V95.117C76 96.8387 77.1017 98.3672 78.7351 98.9117L88 102V106H32V102L41.2649 98.9117C42.8983 98.3672 44 96.8387 44 95.117V82Z" fill="url(#paint0_linear_2249_3935)"/>
<rect x="32" y="102" width="56" height="4" fill="url(#paint1_linear_2249_3935)"/>
<g filter="url(#filter0_di_2249_3935)">
<rect x="8" y="14" width="104" height="72" rx="8" fill="url(#paint2_linear_2249_3935)"/>
</g>
<g filter="url(#filter1_dd_2249_3935)">
<rect x="12" y="18" width="96" height="64" rx="4" fill="url(#paint3_linear_2249_3935)"/>
</g>
<rect x="20" y="26" width="32" height="2" rx="1" fill="#FAFAFA"/>
<rect x="54" y="26" width="6" height="2" rx="1" fill="#FAFAFA"/>
<rect x="20" y="32" width="7" height="2" rx="1" fill="#FFA000"/>
<rect x="29" y="32" width="33" height="2" rx="1" fill="#FFA000"/>
<rect x="64" y="32" width="14" height="2" rx="1" fill="#FFA000"/>
<rect x="20" y="62" width="34" height="2" rx="1" fill="#FFA000"/>
<rect x="20" y="68" width="15" height="2" rx="1" fill="#FFA000"/>
<rect x="56" y="62" width="33" height="2" rx="1" fill="#FFA000"/>
<rect x="20" y="38" width="20" height="2" rx="1" fill="#FAFAFA"/>
<rect x="42" y="38" width="51" height="2" rx="1" fill="#FAFAFA"/>
<rect x="20" y="44" width="27" height="2" rx="1" fill="#E53935"/>
<rect x="49" y="44" width="15" height="2" rx="1" fill="#E53935"/>
<rect x="66" y="44" width="34" height="2" rx="1" fill="#E53935"/>
<rect x="20" y="50" width="22" height="2" rx="1" fill="#E53935"/>
<rect x="20" y="56" width="44" height="2" rx="1" fill="#FAFAFA"/>
<rect x="66" y="56" width="12" height="2" rx="1" fill="#FAFAFA"/>
<rect x="80" y="56" width="4" height="2" rx="1" fill="#FAFAFA"/>
<rect width="120" height="120" fill="url(#paint4_radial_2249_3935)" fill-opacity="0.1"/>
</g>
<defs>
<filter id="filter0_di_2249_3935" x="4" y="12" width="112" height="80" filterUnits="userSpaceOnUse" color-interpolation-filters="sRGB">
<feFlood flood-opacity="0" result="BackgroundImageFix"/>
<feColorMatrix in="SourceAlpha" type="matrix" values="0 0 0 0 0 0 0 0 0 0 0 0 0 0 0 0 0 0 127 0" result="hardAlpha"/>
<feOffset dy="2"/>
<feGaussianBlur stdDeviation="2"/>
<feComposite in2="hardAlpha" operator="out"/>
<feColorMatrix type="matrix" values="0 0 0 0 0 0 0 0 0 0.301961 0 0 0 0 0.25098 0 0 0 0.5 0"/>
<feBlend mode="normal" in2="BackgroundImageFix" result="effect1_dropShadow_2249_3935"/>
<feBlend mode="normal" in="SourceGraphic" in2="effect1_dropShadow_2249_3935" result="shape"/>
<feColorMatrix in="SourceAlpha" type="matrix" values="0 0 0 0 0 0 0 0 0 0 0 0 0 0 0 0 0 0 127 0" result="hardAlpha"/>
<feOffset dy="1"/>
<feComposite in2="hardAlpha" operator="arithmetic" k2="-1" k3="1"/>
<feColorMatrix type="matrix" values="0 0 0 0 0.501961 0 0 0 0 0.796078 0 0 0 0 0.768627 0 0 0 0.5 0"/>
<feBlend mode="normal" in2="shape" result="effect2_innerShadow_2249_3935"/>
</filter>
<filter id="filter1_dd_2249_3935" x="12" y="17" width="96" height="66" filterUnits="userSpaceOnUse" color-interpolation-filters="sRGB">
<feFlood flood-opacity="0" result="BackgroundImageFix"/>
<feColorMatrix in="SourceAlpha" type="matrix" values="0 0 0 0 0 0 0 0 0 0 0 0 0 0 0 0 0 0 127 0" result="hardAlpha"/>
<feOffset dy="1"/>
<feComposite in2="hardAlpha" operator="out"/>
<feColorMatrix type="matrix" values="0 0 0 0 0.501961 0 0 0 0 0.796078 0 0 0 0 0.768627 0 0 0 0.5 0"/>
<feBlend mode="normal" in2="BackgroundImageFix" result="effect1_dropShadow_2249_3935"/>
<feColorMatrix in="SourceAlpha" type="matrix" values="0 0 0 0 0 0 0 0 0 0 0 0 0 0 0 0 0 0 127 0" result="hardAlpha"/>
<feOffset dy="-1"/>
<feComposite in2="hardAlpha" operator="out"/>
<feColorMatrix type="matrix" values="0 0 0 0 0 0 0 0 0 0.537255 0 0 0 0 0.482353 0 0 0 0.5 0"/>
<feBlend mode="normal" in2="effect1_dropShadow_2249_3935" result="effect2_dropShadow_2249_3935"/>
<feBlend mode="normal" in="SourceGraphic" in2="effect2_dropShadow_2249_3935" result="shape"/>
</filter>
<linearGradient id="paint0_linear_2249_3935" x1="60" y1="83" x2="60" y2="103.444" gradientUnits="userSpaceOnUse">
<stop offset="0.609375" stop-color="#00897B"/>
<stop offset="1" stop-color="#4DB6AC"/>
</linearGradient>
<linearGradient id="paint1_linear_2249_3935" x1="32" y1="104" x2="88" y2="104" gradientUnits="userSpaceOnUse">
<stop stop-color="#B2DFDB"/>
<stop offset="0.130208" stop-color="#B2DFDB" stop-opacity="0"/>
<stop offset="0.864583" stop-color="#B2DFDB" stop-opacity="0"/>
<stop offset="1" stop-color="#B2DFDB"/>
</linearGradient>
<linearGradient id="paint2_linear_2249_3935" x1="60" y1="14" x2="60" y2="86" gradientUnits="userSpaceOnUse">
<stop stop-color="#26A69A"/>
<stop offset="1" stop-color="#009688"/>
</linearGradient>
<linearGradient id="paint3_linear_2249_3935" x1="60" y1="18" x2="60" y2="82" gradientUnits="userSpaceOnUse">
<stop stop-color="#424242"/>
<stop offset="1" stop-color="#212121"/>
</linearGradient>
<radialGradient id="paint4_radial_2249_3935" cx="0" cy="0" r="1" gradientUnits="userSpaceOnUse" gradientTransform="rotate(45) scale(169.706)">
<stop stop-color="white"/>
<stop offset="1" stop-color="white" stop-opacity="0"/>
</radialGradient>
</defs>
</svg>
