<svg width="120" height="120" viewBox="0 0 120 120" fill="none" xmlns="http://www.w3.org/2000/svg">
<mask id="mask0_2249_3594" style="mask-type:alpha" maskUnits="userSpaceOnUse" x="20" y="8" width="87" height="104">
<path d="M36 8C31.5817 8 28 11.5817 28 16C23.5817 16 20 19.5817 20 24V104C20 108.418 23.5817 112 28 112H84C88.4183 112 92 108.418 92 104C96.4183 104 100 100.418 100 96V47.8038L106.392 36.732C106.945 35.7755 106.617 34.5523 105.66 34L100 30.7321V16C100 11.5817 96.4183 8 92 8H36Z" fill="#212121"/>
</mask>
<g mask="url(#mask0_2249_3594)">
<rect x="28" y="8" width="72" height="96" rx="8" fill="#E0E0E0"/>
<g filter="url(#filter0_dii_2249_3594)">
<rect x="20" y="16" width="72" height="96" rx="8" fill="#F5F5F5"/>
</g>
<rect x="32" y="28" width="38" height="8" rx="2" fill="#424242"/>
<rect x="32" y="44" width="48" height="4" rx="2" fill="#616161"/>
<rect x="32" y="80" width="6" height="4" rx="2" fill="#616161"/>
<rect x="42" y="80" width="38" height="4" rx="2" fill="#616161"/>
<rect x="58" y="92" width="10" height="4" rx="2" fill="#616161"/>
<rect x="32" y="56" width="17" height="4" rx="2" fill="#616161"/>
<rect x="53" y="56" width="27" height="4" rx="2" fill="#616161"/>
<rect x="32" y="68" width="24" height="4" rx="2" fill="#616161"/>
<rect x="32" y="92" width="22" height="4" rx="2" fill="#616161"/>
<rect x="60" y="68" width="10" height="4" rx="2" fill="#616161"/>
<rect x="74" y="68" width="6" height="4" rx="2" fill="#616161"/>
<g filter="url(#filter1_d_2249_3594)">
<path d="M102.392 43.6602L92 37.6602L68 79.2295L68.7321 81.9615L75.6603 85.9615L78.3923 85.2295L102.392 43.6602Z" fill="#FBC02D"/>
<g filter="url(#filter2_d_2249_3594)">
<rect x="94.5981" y="39.1602" width="6" height="50" transform="rotate(30 94.5981 39.1602)" fill="url(#paint0_linear_2249_3594)"/>
</g>
<g filter="url(#filter3_ii_2249_3594)">
<path d="M78.2738 85.327L67.2555 94.3917C66.5419 94.9787 65.4821 94.3668 65.6337 93.4553L67.9748 79.3809C67.9915 79.2807 68.026 79.1844 68.0768 79.0965C68.3105 78.6916 68.8408 78.5463 69.1647 78.8834C70.0665 79.8219 70.2815 81.2778 69.5981 82.4615C70.4262 81.0272 72.2613 80.535 73.6962 81.3634C75.131 82.1919 75.6227 84.0266 74.7942 85.4615C75.4777 84.2778 76.846 83.736 78.1097 84.0477C78.5636 84.1597 78.7028 84.6916 78.4691 85.0965C78.4183 85.1844 78.3522 85.2625 78.2738 85.327Z" fill="url(#paint1_linear_2249_3594)"/>
</g>
<g filter="url(#filter4_ii_2249_3594)">
<path d="M96 30.7321C96.5523 29.7755 97.7755 29.4477 98.7321 30L105.66 34C106.617 34.5523 106.945 35.7755 106.392 36.7321L103.892 41.0622L93.5 35.0622L96 30.7321Z" fill="url(#paint2_linear_2249_3594)"/>
</g>
<g filter="url(#filter5_i_2249_3594)">
<rect x="93.5" y="35.0622" width="12" height="6" transform="rotate(30 93.5 35.0622)" fill="url(#paint3_linear_2249_3594)"/>
</g>
<g filter="url(#filter6_i_2249_3594)">
<path d="M66.3879 88.921L65.6337 93.4553C65.4821 94.3668 66.5419 94.9787 67.2555 94.3917L70.8052 91.4713L69.7416 89.3218C69.5627 88.9602 69.1839 88.7415 68.7813 88.7673L66.3879 88.921Z" fill="#212121"/>
</g>
</g>
<rect width="120" height="120" fill="url(#paint4_radial_2249_3594)" fill-opacity="0.2"/>
</g>
<defs>
<filter id="filter0_dii_2249_3594" x="12" y="10" width="88" height="112" filterUnits="userSpaceOnUse" color-interpolation-filters="sRGB">
<feFlood flood-opacity="0" result="BackgroundImageFix"/>
<feColorMatrix in="SourceAlpha" type="matrix" values="0 0 0 0 0 0 0 0 0 0 0 0 0 0 0 0 0 0 127 0" result="hardAlpha"/>
<feOffset dy="2"/>
<feGaussianBlur stdDeviation="4"/>
<feComposite in2="hardAlpha" operator="out"/>
<feColorMatrix type="matrix" values="0 0 0 0 0 0 0 0 0 0 0 0 0 0 0 0 0 0 0.15 0"/>
<feBlend mode="normal" in2="BackgroundImageFix" result="effect1_dropShadow_2249_3594"/>
<feBlend mode="normal" in="SourceGraphic" in2="effect1_dropShadow_2249_3594" result="shape"/>
<feColorMatrix in="SourceAlpha" type="matrix" values="0 0 0 0 0 0 0 0 0 0 0 0 0 0 0 0 0 0 127 0" result="hardAlpha"/>
<feOffset dy="2"/>
<feComposite in2="hardAlpha" operator="arithmetic" k2="-1" k3="1"/>
<feColorMatrix type="matrix" values="0 0 0 0 1 0 0 0 0 1 0 0 0 0 1 0 0 0 0.5 0"/>
<feBlend mode="normal" in2="shape" result="effect2_innerShadow_2249_3594"/>
<feColorMatrix in="SourceAlpha" type="matrix" values="0 0 0 0 0 0 0 0 0 0 0 0 0 0 0 0 0 0 127 0" result="hardAlpha"/>
<feOffset dy="-2"/>
<feComposite in2="hardAlpha" operator="arithmetic" k2="-1" k3="1"/>
<feColorMatrix type="matrix" values="0 0 0 0 0.741176 0 0 0 0 0.741176 0 0 0 0 0.741176 0 0 0 0.5 0"/>
<feBlend mode="normal" in2="effect2_innerShadow_2249_3594" result="effect3_innerShadow_2249_3594"/>
</filter>
<filter id="filter1_d_2249_3594" x="56" y="29" width="55.3923" height="78.0859" filterUnits="userSpaceOnUse" color-interpolation-filters="sRGB">
<feFlood flood-opacity="0" result="BackgroundImageFix"/>
<feColorMatrix in="SourceAlpha" type="matrix" values="0 0 0 0 0 0 0 0 0 0 0 0 0 0 0 0 0 0 127 0" result="hardAlpha"/>
<feOffset dy="4"/>
<feGaussianBlur stdDeviation="2"/>
<feComposite in2="hardAlpha" operator="out"/>
<feColorMatrix type="matrix" values="0 0 0 0 0 0 0 0 0 0 0 0 0 0 0 0 0 0 0.25 0"/>
<feBlend mode="normal" in2="BackgroundImageFix" result="effect1_dropShadow_2249_3594"/>
<feBlend mode="normal" in="SourceGraphic" in2="effect1_dropShadow_2249_3594" result="shape"/>
</filter>
<filter id="filter2_d_2249_3594" x="68.5981" y="38.1602" width="32.1962" height="48.3013" filterUnits="userSpaceOnUse" color-interpolation-filters="sRGB">
<feFlood flood-opacity="0" result="BackgroundImageFix"/>
<feColorMatrix in="SourceAlpha" type="matrix" values="0 0 0 0 0 0 0 0 0 0 0 0 0 0 0 0 0 0 127 0" result="hardAlpha"/>
<feMorphology radius="1" operator="dilate" in="SourceAlpha" result="effect1_dropShadow_2249_3594"/>
<feOffset/>
<feComposite in2="hardAlpha" operator="out"/>
<feColorMatrix type="matrix" values="0 0 0 0 0.976471 0 0 0 0 0.658824 0 0 0 0 0.145098 0 0 0 0.5 0"/>
<feBlend mode="normal" in2="BackgroundImageFix" result="effect1_dropShadow_2249_3594"/>
<feBlend mode="normal" in="SourceGraphic" in2="effect1_dropShadow_2249_3594" result="shape"/>
</filter>
<filter id="filter3_ii_2249_3594" x="65.6191" y="78.6958" width="12.9617" height="15.9268" filterUnits="userSpaceOnUse" color-interpolation-filters="sRGB">
<feFlood flood-opacity="0" result="BackgroundImageFix"/>
<feBlend mode="normal" in="SourceGraphic" in2="BackgroundImageFix" result="shape"/>
<feColorMatrix in="SourceAlpha" type="matrix" values="0 0 0 0 0 0 0 0 0 0 0 0 0 0 0 0 0 0 127 0" result="hardAlpha"/>
<feOffset dy="1"/>
<feComposite in2="hardAlpha" operator="arithmetic" k2="-1" k3="1"/>
<feColorMatrix type="matrix" values="0 0 0 0 1 0 0 0 0 0.992157 0 0 0 0 0.905882 0 0 0 0.5 0"/>
<feBlend mode="normal" in2="shape" result="effect1_innerShadow_2249_3594"/>
<feColorMatrix in="SourceAlpha" type="matrix" values="0 0 0 0 0 0 0 0 0 0 0 0 0 0 0 0 0 0 127 0" result="hardAlpha"/>
<feOffset dy="-1"/>
<feComposite in2="hardAlpha" operator="arithmetic" k2="-1" k3="1"/>
<feColorMatrix type="matrix" values="0 0 0 0 1 0 0 0 0 0.933333 0 0 0 0 0.345098 0 0 0 0.5 0"/>
<feBlend mode="normal" in2="effect1_innerShadow_2249_3594" result="effect2_innerShadow_2249_3594"/>
</filter>
<filter id="filter4_ii_2249_3594" x="93.5" y="29.7317" width="13.1606" height="11.3305" filterUnits="userSpaceOnUse" color-interpolation-filters="sRGB">
<feFlood flood-opacity="0" result="BackgroundImageFix"/>
<feBlend mode="normal" in="SourceGraphic" in2="BackgroundImageFix" result="shape"/>
<feColorMatrix in="SourceAlpha" type="matrix" values="0 0 0 0 0 0 0 0 0 0 0 0 0 0 0 0 0 0 127 0" result="hardAlpha"/>
<feOffset dy="1"/>
<feComposite in2="hardAlpha" operator="arithmetic" k2="-1" k3="1"/>
<feColorMatrix type="matrix" values="0 0 0 0 0.972549 0 0 0 0 0.733333 0 0 0 0 0.815686 0 0 0 0.5 0"/>
<feBlend mode="normal" in2="shape" result="effect1_innerShadow_2249_3594"/>
<feColorMatrix in="SourceAlpha" type="matrix" values="0 0 0 0 0 0 0 0 0 0 0 0 0 0 0 0 0 0 127 0" result="hardAlpha"/>
<feOffset dy="-1"/>
<feComposite in2="hardAlpha" operator="arithmetic" k2="-1" k3="1"/>
<feColorMatrix type="matrix" values="0 0 0 0 0.760784 0 0 0 0 0.0941176 0 0 0 0 0.356863 0 0 0 0.5 0"/>
<feBlend mode="normal" in2="effect1_innerShadow_2249_3594" result="effect2_innerShadow_2249_3594"/>
</filter>
<filter id="filter5_i_2249_3594" x="90.5" y="35.0622" width="13.3923" height="11.1962" filterUnits="userSpaceOnUse" color-interpolation-filters="sRGB">
<feFlood flood-opacity="0" result="BackgroundImageFix"/>
<feBlend mode="normal" in="SourceGraphic" in2="BackgroundImageFix" result="shape"/>
<feColorMatrix in="SourceAlpha" type="matrix" values="0 0 0 0 0 0 0 0 0 0 0 0 0 0 0 0 0 0 127 0" result="hardAlpha"/>
<feOffset dy="-1"/>
<feComposite in2="hardAlpha" operator="arithmetic" k2="-1" k3="1"/>
<feColorMatrix type="matrix" values="0 0 0 0 0.270588 0 0 0 0 0.352941 0 0 0 0 0.392157 0 0 0 0.5 0"/>
<feBlend mode="normal" in2="shape" result="effect1_innerShadow_2249_3594"/>
</filter>
<filter id="filter6_i_2249_3594" x="65.6191" y="88.7653" width="5.18616" height="5.85739" filterUnits="userSpaceOnUse" color-interpolation-filters="sRGB">
<feFlood flood-opacity="0" result="BackgroundImageFix"/>
<feBlend mode="normal" in="SourceGraphic" in2="BackgroundImageFix" result="shape"/>
<feColorMatrix in="SourceAlpha" type="matrix" values="0 0 0 0 0 0 0 0 0 0 0 0 0 0 0 0 0 0 127 0" result="hardAlpha"/>
<feOffset dy="-1"/>
<feComposite in2="hardAlpha" operator="arithmetic" k2="-1" k3="1"/>
<feColorMatrix type="matrix" values="0 0 0 0 0 0 0 0 0 0 0 0 0 0 0 0 0 0 0.5 0"/>
<feBlend mode="normal" in2="shape" result="effect1_innerShadow_2249_3594"/>
</filter>
<linearGradient id="paint0_linear_2249_3594" x1="97.5981" y1="39.1602" x2="97.5981" y2="89.1602" gradientUnits="userSpaceOnUse">
<stop stop-color="#F57F17"/>
<stop offset="1" stop-color="#E65100"/>
</linearGradient>
<linearGradient id="paint1_linear_2249_3594" x1="73.6962" y1="81.3634" x2="65.1962" y2="96.0859" gradientUnits="userSpaceOnUse">
<stop stop-color="#FFF9C4"/>
<stop offset="1" stop-color="#FFF176"/>
</linearGradient>
<linearGradient id="paint2_linear_2249_3594" x1="102.196" y1="32" x2="98.6962" y2="38.0622" gradientUnits="userSpaceOnUse">
<stop stop-color="#F06292"/>
<stop offset="1" stop-color="#E91E63"/>
</linearGradient>
<linearGradient id="paint3_linear_2249_3594" x1="93.5" y1="38.0622" x2="105.5" y2="38.0622" gradientUnits="userSpaceOnUse">
<stop stop-color="#90A4AE"/>
<stop offset="1" stop-color="#607D8B"/>
</linearGradient>
<radialGradient id="paint4_radial_2249_3594" cx="0" cy="0" r="1" gradientUnits="userSpaceOnUse" gradientTransform="rotate(45) scale(169.706)">
<stop stop-color="white"/>
<stop offset="1" stop-color="white" stop-opacity="0"/>
</radialGradient>
</defs>
</svg>
