<?xml version="1.0" standalone="no"?><!-- Generator: Gravit.io --><svg xmlns="http://www.w3.org/2000/svg" xmlns:xlink="http://www.w3.org/1999/xlink" style="isolation:isolate" viewBox="0 0 2048 2048" width="2048" height="2048"><defs><clipPath id="_clipPath_KqeV7dZR7ZABZnlAnrqzlIVls06HHLN5"><rect width="2048" height="2048"/></clipPath></defs><g clip-path="url(#_clipPath_KqeV7dZR7ZABZnlAnrqzlIVls06HHLN5)"><clipPath id="_clipPath_tYMcDBwhE6WkRGkIeZVQBx4kzf94zYr0"><path d="M 1024 0 L 1024 0 C 1589.161 0 2048 458.839 2048 1024 L 2048 1024 C 2048 1589.161 1589.161 2048 1024 2048 L 1024 2048 C 458.839 2048 0 1589.161 0 1024 L 0 1024 C 0 458.839 458.839 0 1024 0 Z" style="stroke:none;fill:#FFFFFF;stroke-miterlimit:10;"/></clipPath><g clip-path="url(#_clipPath_tYMcDBwhE6WkRGkIeZVQBx4kzf94zYr0)"><g><rect x="0" y="0" width="2048" height="2048" transform="matrix(1,0,0,1,0,0)" fill="rgb(255,187,0)"/><rect x="0" y="0" width="2048" height="1381.096" transform="matrix(1,0,0,1,0,0)" fill="rgb(255,207,77)"/><rect x="0" y="0" width="2048" height="690.548" transform="matrix(1,0,0,1,0,0)" fill="rgb(255,235,179)"/><g filter="url(#P5Hap0EpIWZ5dYf4kQK0t2jqa6ktevtT)"><path d=" M 383 353 L 858 353 C 899.394 353 933 386.606 933 428 L 933 903 C 933 944.394 899.394 978 858 978 L 383 978 C 341.606 978 308 944.394 308 903 L 308 428 C 308 386.606 341.606 353 383 353 Z " fill="rgb(255,172,0)"/></g><defs><filter id="P5Hap0EpIWZ5dYf4kQK0t2jqa6ktevtT" x="-200%" y="-200%" width="400%" height="400%" filterUnits="objectBoundingBox" color-interpolation-filters="sRGB"><feGaussianBlur xmlns="http://www.w3.org/2000/svg" in="SourceGraphic" stdDeviation="42.93609062839028"/><feOffset xmlns="http://www.w3.org/2000/svg" dx="50" dy="50" result="pf_100_offsetBlur"/><feFlood xmlns="http://www.w3.org/2000/svg" flood-color="#000000" flood-opacity="0.2"/><feComposite xmlns="http://www.w3.org/2000/svg" in2="pf_100_offsetBlur" operator="in" result="pf_100_dropShadow"/><feBlend xmlns="http://www.w3.org/2000/svg" in="SourceGraphic" in2="pf_100_dropShadow" mode="normal"/></filter></defs><g><path d=" M 812.5 777.5 L 812.5 857.5 L 732.5 857.5 L 496.553 621.553 L 576.553 541.553 L 812.5 777.5 Z  M 434.687 559.687 C 426.367 551.367 426.367 537.927 434.687 529.607 L 484.607 479.687 C 492.927 471.367 506.367 471.367 514.687 479.687 L 553.727 518.727 L 473.727 598.727 L 434.687 559.687 Z " fill="rgb(255,255,255)"/><path d=" M 876.5 409.5 L 364.5 409.5 L 364.5 921.5 L 876.5 921.5 L 876.5 409.5 Z " fill="none"/></g></g></g></g></svg>