<?xml version="1.0" standalone="no"?><!-- Generator: Gravit.io --><svg xmlns="http://www.w3.org/2000/svg" xmlns:xlink="http://www.w3.org/1999/xlink" style="isolation:isolate" viewBox="0 0 2048 2048" width="2048px" height="2048px"><defs><clipPath id="_clipPath_YlGwlV8dvvawXy6kPyGrH9Is6zBHq9h8"><rect width="2048" height="2048"/></clipPath></defs><g clip-path="url(#_clipPath_YlGwlV8dvvawXy6kPyGrH9Is6zBHq9h8)"><clipPath id="_clipPath_DDOqCervQKje2GdavmuyHU3VzUKYLaN7"><circle vector-effect="non-scaling-stroke" cx="1024" cy="1024.0000000000007" r="1023.9999999999999" fill="rgb(255,255,255)"/></clipPath><g clip-path="url(#_clipPath_DDOqCervQKje2GdavmuyHU3VzUKYLaN7)"><g><rect x="-512" y="-512" width="3072" height="3072" transform="matrix(1,0,0,1,0,0)" fill="rgb(81,81,81)"/><g filter="url(#ELXD0f3qheha5yMp9C76Ab2dGHSyzedu)"><rect x="1024" y="1024" width="1536" height="1536" transform="matrix(1,0,0,1,0,0)" fill="rgb(56,142,60)"/><rect x="-512" y="1024" width="1536" height="1536" transform="matrix(1,0,0,1,0,0)" fill="rgb(97,97,97)"/><rect x="-512" y="-512" width="1536" height="1536" transform="matrix(1,0,0,1,0,0)" fill="rgb(117,117,117)"/></g><defs><filter id="ELXD0f3qheha5yMp9C76Ab2dGHSyzedu" x="-200%" y="-200%" width="400%" height="400%" filterUnits="objectBoundingBox" color-interpolation-filters="sRGB"><feGaussianBlur xmlns="http://www.w3.org/2000/svg" in="SourceGraphic" stdDeviation="2"/><feOffset xmlns="http://www.w3.org/2000/svg" dx="0" dy="2" result="pf_100_offsetBlur"/><feFlood xmlns="http://www.w3.org/2000/svg" flood-color="#000000" flood-opacity="0"/><feComposite xmlns="http://www.w3.org/2000/svg" in2="pf_100_offsetBlur" operator="in" result="pf_100_dropShadow"/><feBlend xmlns="http://www.w3.org/2000/svg" in="SourceGraphic" in2="pf_100_dropShadow" mode="normal"/></filter></defs><path d=" M 1024 1038.222 L 1024 1024 L 2560 1024 L 2560 1038.222 L 1024 1038.222 Z " fill="rgb(56,142,60)"/><path d=" M 1280 1422.222 L 1280 1336.889 L 1649.778 1336.889 L 1649.778 1422.222 L 1280 1422.222 Z " fill="rgb(245,245,245)"/><path d=" M 1280 1592.889 L 1280 1507.556 L 1649.778 1507.556 L 1649.778 1592.889 L 1280 1592.889 Z " fill="rgb(245,245,245)"/><path d=" M 625.778 1422.222 L 625.778 1280 L 540.444 1280 L 540.444 1422.222 L 398.222 1422.222 L 398.222 1507.556 L 540.444 1507.556 L 540.444 1649.778 L 625.778 1649.778 L 625.778 1507.556 L 768 1507.556 L 768 1422.222 L 625.778 1422.222 Z " fill="rgb(245,245,245)"/><path d=" M 1464.889 522.772 L 1364.324 422.204 L 1303.984 482.546 L 1404.55 583.111 L 1303.984 683.676 L 1364.324 744.018 L 1464.889 643.45 L 1565.454 744.018 L 1625.796 683.676 L 1525.228 583.111 L 1625.796 482.546 L 1565.454 422.204 L 1464.889 522.772 Z " fill="rgb(245,245,245)"/><path d=" M 398.222 625.778 L 398.222 540.444 L 768 540.444 L 768 625.778 L 398.222 625.778 Z " fill="rgb(245,245,245)"/><radialGradient id="_rgradient_0" fx="0.25925925925925924" fy="0.25925925925925924" cx="0.5" cy="0.5" r="1" gradientTransform="matrix(3072,0,0,3072,-512,-512)" gradientUnits="userSpaceOnUse"><stop offset="0%" stop-opacity="0.1" style="stop-color:rgb(255,255,255)"/><stop offset="100%" stop-opacity="0" style="stop-color:rgb(255,255,255)"/></radialGradient><rect x="-512" y="-512" width="3072" height="3072" transform="matrix(1,0,0,1,0,0)" fill="url(#_rgradient_0)"/></g></g></g></svg>