<svg width="120" height="120" viewBox="0 0 120 120" fill="none" xmlns="http://www.w3.org/2000/svg">
<mask id="mask0_2254_3522" style="mask-type:alpha" maskUnits="userSpaceOnUse" x="12" y="12" width="96" height="96">
<path d="M20 16C20 13.7909 21.7909 12 24 12H96C98.2091 12 100 13.7909 100 16V32H101C102.657 32 104 33.3431 104 35V49.0703C106.391 50.4535 108 53.0389 108 56V100C108 104.418 104.418 108 100 108H20C15.5817 108 12 104.418 12 100V56C12 53.0389 13.6088 50.4535 16 49.0703V35C16 33.3431 17.3431 32 19 32H20V16Z" fill="#D9D9D9"/>
</mask>
<g mask="url(#mask0_2254_3522)">
<path d="M16 36C16 33.7909 17.7909 32 20 32H100C102.209 32 104 33.7909 104 36V72C104 74.2091 102.209 76 100 76H20C17.7909 76 16 74.2091 16 72V36Z" fill="#D9D9D9"/>
<path fill-rule="evenodd" clip-rule="evenodd" d="M20 32C17.7909 32 16 33.7909 16 36V72C16 74.2091 17.7909 76 20 76L20 32ZM100 32V76C102.209 76 104 74.2091 104 72V36C104 33.7909 102.209 32 100 32Z" fill="#1A237E"/>
<path d="M20 16C20 13.7909 21.7909 12 24 12H96C98.2091 12 100 13.7909 100 16V92C100 94.2091 98.2091 96 96 96H24C21.7909 96 20 94.2091 20 92V16Z" fill="#757575"/>
<path d="M20 24C20 21.7909 21.7909 20 24 20H96C98.2091 20 100 21.7909 100 24V94C100 96.2091 98.2091 98 96 98H24C21.7909 98 20 96.2091 20 94V24Z" fill="#BDBDBD"/>
<path d="M20 100H100V44L84 28H25C22.2386 28 20 30.2386 20 33V100Z" fill="white"/>
<path d="M100 44L84 28V40C84 42.2091 85.7909 44 88 44H100Z" fill="#E0E0E0"/>
<path d="M20 108H100C104.418 108 108 104.418 108 100V56C108 51.5817 104.418 48 100 48H20C15.5817 48 12 51.5817 12 56V100C12 104.418 15.5817 108 20 108Z" fill="#3F51B5"/>
<path d="M44 86C44 84.8954 44.8954 84 46 84H74C75.1046 84 76 84.8954 76 86V90C76 91.1046 75.1046 92 74 92H46C44.8954 92 44 91.1046 44 90V86Z" fill="#F5F5F5"/>
</g>
</svg>
