<svg width="120" height="120" viewBox="0 0 120 120" fill="none" xmlns="http://www.w3.org/2000/svg">
<path d="M28 16C28 11.5817 31.5817 8 36 8H92C96.4183 8 100 11.5817 100 16V96C100 100.418 96.4183 104 92 104H36C31.5817 104 28 100.418 28 96V16Z" fill="#E0E0E0"/>
<path d="M20 24C20 19.5817 23.5817 16 28 16H84C88.4183 16 92 19.5817 92 24V104C92 108.418 88.4183 112 84 112H28C23.5817 112 20 108.418 20 104V24Z" fill="#F5F5F5"/>
<path d="M32 30C32 28.8954 32.8954 28 34 28H68C69.1046 28 70 28.8954 70 30V34C70 35.1046 69.1046 36 68 36H34C32.8954 36 32 35.1046 32 34V30Z" fill="#424242"/>
<path d="M32 46C32 44.8954 32.8954 44 34 44H78C79.1046 44 80 44.8954 80 46C80 47.1046 79.1046 48 78 48H34C32.8954 48 32 47.1046 32 46Z" fill="#616161"/>
<path d="M32 82C32 80.8954 32.8954 80 34 80H36C37.1046 80 38 80.8954 38 82C38 83.1046 37.1046 84 36 84H34C32.8954 84 32 83.1046 32 82Z" fill="#616161"/>
<path d="M42 82C42 80.8954 42.8954 80 44 80H78C79.1046 80 80 80.8954 80 82C80 83.1046 79.1046 84 78 84H44C42.8954 84 42 83.1046 42 82Z" fill="#616161"/>
<path d="M58 94C58 92.8954 58.8954 92 60 92H66C67.1046 92 68 92.8954 68 94C68 95.1046 67.1046 96 66 96H60C58.8954 96 58 95.1046 58 94Z" fill="#616161"/>
<path d="M32 58C32 56.8954 32.8954 56 34 56H47C48.1046 56 49 56.8954 49 58C49 59.1046 48.1046 60 47 60H34C32.8954 60 32 59.1046 32 58Z" fill="#616161"/>
<path d="M53 58C53 56.8954 53.8954 56 55 56H78C79.1046 56 80 56.8954 80 58C80 59.1046 79.1046 60 78 60H55C53.8954 60 53 59.1046 53 58Z" fill="#616161"/>
<path d="M32 70C32 68.8954 32.8954 68 34 68H54C55.1046 68 56 68.8954 56 70C56 71.1046 55.1046 72 54 72H34C32.8954 72 32 71.1046 32 70Z" fill="#616161"/>
<path d="M32 94C32 92.8954 32.8954 92 34 92H52C53.1046 92 54 92.8954 54 94C54 95.1046 53.1046 96 52 96H34C32.8954 96 32 95.1046 32 94Z" fill="#616161"/>
<path d="M60 70C60 68.8954 60.8954 68 62 68H68C69.1046 68 70 68.8954 70 70C70 71.1046 69.1046 72 68 72H62C60.8954 72 60 71.1046 60 70Z" fill="#616161"/>
<rect x="74" y="68" width="6" height="4" rx="2" fill="#616161"/>
<path d="M102.392 43.6603L92 37.6603L68 79.2295L68.7321 81.9615L75.6603 85.9615L78.3923 85.2295L102.392 43.6603Z" fill="#FBC02D"/>
<rect x="94.598" y="39.1603" width="6" height="50" transform="rotate(30 94.598 39.1603)" fill="#F57F17"/>
<path d="M78.2737 85.3269L67.2554 94.3916C66.5419 94.9787 65.482 94.3668 65.6337 93.4553L67.9748 79.3808C67.9914 79.2807 68.0259 79.1844 68.0767 79.0965C68.3105 78.6916 68.8407 78.5462 69.1647 78.8833C70.0665 79.8218 70.2815 81.2777 69.598 82.4615C70.4261 81.0271 72.2612 80.535 73.6961 81.3634C75.131 82.1918 75.6226 84.0266 74.7942 85.4615C75.4776 84.2777 76.8459 83.736 78.1096 84.0477C78.5635 84.1597 78.7028 84.6916 78.469 85.0965C78.4183 85.1844 78.3521 85.2625 78.2737 85.3269Z" fill="#FFF59D"/>
<path d="M66.3878 88.9209L65.6337 93.4553C65.482 94.3668 66.5419 94.9787 67.2554 94.3916L70.8052 91.4713L69.7416 89.3218C69.5626 88.9601 69.1839 88.7415 68.7812 88.7673L66.3878 88.9209Z" fill="#212121"/>
<path d="M96 30.732C96.5523 29.7754 97.7755 29.4477 98.7321 30L105.66 34C106.617 34.5523 106.945 35.7754 106.392 36.732L103.892 41.0622L93.5 35.0622L96 30.732Z" fill="#E91E63"/>
<rect x="93.5" y="35.0622" width="12" height="6" transform="rotate(30 93.5 35.0622)" fill="#90A4AE"/>
</svg>
