<svg width="120" height="120" viewBox="0 0 120 120" fill="none" xmlns="http://www.w3.org/2000/svg">
<path d="M91.6329 90.3422C101.666 82.4609 108 70.8931 108 58C108 34.2518 86.5097 15 60 15C33.4903 15 12 34.2518 12 58C12 81.7482 33.4903 101 60 101C66.812 101 73.2926 99.7288 79.1623 97.4368C84.3536 103.045 90.9156 106.031 98.5006 105.656C100.158 105.573 100.738 103.551 99.578 102.365C96.2307 98.9394 93.3284 94.9497 91.6329 90.3422Z" fill="#FF5722"/>
<mask id="mask0_2254_3669" style="mask-type:alpha" maskUnits="userSpaceOnUse" x="12" y="4" width="96" height="102">
<path d="M47.2409 13.4211C48.8542 10.5267 47.8156 6.87241 44.9212 5.2591C42.0267 3.64579 38.3724 4.68437 36.7591 7.57884C33.8514 12.7957 31.8128 18.3729 30.4561 24.1076C19.2215 31.9779 12 44.2335 12 58C12 81.7482 33.4903 101 60 101C66.812 101 73.2926 99.7288 79.1623 97.4368C84.3536 103.045 90.9156 106.031 98.5006 105.656C100.158 105.573 100.738 103.551 99.578 102.365C96.2307 98.9394 93.3284 94.9497 91.6329 90.3422C101.666 82.4609 108 70.8931 108 58C108 34.2518 86.5097 15 60 15C54.9235 15 50.0311 15.706 45.4384 17.0143C45.9901 15.7872 46.5902 14.5886 47.2409 13.4211Z" fill="#FFF9C4"/>
</mask>
<g mask="url(#mask0_2254_3669)">
<path d="M44.9213 5.2591C47.8157 6.87241 48.8543 10.5267 47.241 13.4211C46.4754 14.7948 45.7798 16.2116 45.1507 17.6671L45.1482 17.6729C41.8712 25.2572 40.3977 33.8906 40.2136 42.9251C41.8903 45.5444 43.7566 47.6518 45.7274 49.3608L45.7369 49.3689C49.7245 52.8236 54.139 54.6484 58.2761 55.7828C60.9004 56.5024 63.2561 56.9095 65.5085 57.2988C66.1897 57.4165 66.8614 57.5325 67.5283 57.6551C68.8199 57.8926 70.3655 58.2035 71.7182 58.7016C72.782 59.0934 75.273 60.1293 76.5841 62.7812C83.9203 76.4015 85.7073 89.9221 86.7181 104.073C86.9541 107.378 84.4661 110.249 81.1608 110.485C77.8555 110.721 74.9846 108.233 74.7485 104.927C73.9997 94.444 72.8558 85.3256 69.6604 76.5803C68.9179 78.4875 68.3641 80.8007 68.0324 83.5208C67.2395 90.0224 67.9518 97.1774 68.9399 101.978C69.9803 107.033 65.9663 112.228 60.3072 111.713L47.8811 110.584C45.0253 110.324 42.4071 108.542 41.2346 105.711C36.2653 93.7137 28.2628 69.4802 28.1941 45.209C28.1365 44.7232 28.1393 44.2354 28.1995 43.7563C28.3282 31.3678 30.5827 18.6603 36.7592 7.57884C38.3725 4.68437 42.0268 3.64579 44.9213 5.2591Z" fill="white"/>
<path d="M76.7332 37C76.7332 44.1797 70.9129 50 63.7332 50C56.5535 50 50.7332 44.1797 50.7332 37C50.7332 29.8203 56.5535 24 63.7332 24C70.9129 24 76.7332 29.8203 76.7332 37Z" fill="white"/>
</g>
</svg>
