<svg width="120" height="120" viewBox="0 0 120 120" fill="none" xmlns="http://www.w3.org/2000/svg">
<mask id="mask0_2247_3638" style="mask-type:alpha" maskUnits="userSpaceOnUse" x="20" y="4" width="80" height="112">
<rect x="20" y="4" width="80" height="112" rx="8" fill="url(#paint0_linear_2247_3638)"/>
</mask>
<g mask="url(#mask0_2247_3638)">
<g filter="url(#filter0_ii_2247_3638)">
<rect x="20" y="4" width="80" height="112" rx="8" fill="url(#paint1_linear_2247_3638)"/>
</g>
<g filter="url(#filter1_ii_2247_3638)">
<rect x="28" y="12" width="64" height="32" rx="2" fill="url(#paint2_linear_2247_3638)"/>
</g>
<path d="M49 27.5L47 25.5V20.5L50.25 17.25L51 18V25.5L49 27.5Z" fill="#212121"/>
<path d="M49 28.5L47 30.5V35.5L50.25 38.75L51 38V30.5L49 28.5Z" fill="#212121"/>
<path d="M39 16H49L49.75 16.75L46.5 20H41.5L38.25 16.75L39 16Z" fill="#424242" fill-opacity="0.3"/>
<path d="M37 25.5V18L37.75 17.25L41 20.5V25.5L39 27.5L37 25.5Z" fill="#424242" fill-opacity="0.3"/>
<path d="M41 30.5L39 28.5L37 30.5V38L37.75 38.75L41 35.5V30.5Z" fill="#424242" fill-opacity="0.3"/>
<path d="M41.5 26L39.5 28L41.5 30H46.5L48.5 28L46.5 26H41.5Z" fill="#424242" fill-opacity="0.3"/>
<path d="M49 40H39L38.25 39.25L41.5 36H46.5L49.75 39.25L49 40Z" fill="#424242" fill-opacity="0.3"/>
<path d="M65 16H55L54.25 16.75L57.5 20H62.5L65.75 16.75L65 16Z" fill="#212121"/>
<path d="M55 40H65L65.75 39.25L62.5 36H57.5L54.25 39.25L55 40Z" fill="#424242" fill-opacity="0.3"/>
<path d="M55.5 28L57.5 26H62.5L64.5 28L62.5 30H57.5L55.5 28Z" fill="#424242" fill-opacity="0.3"/>
<path d="M55 28.5L57 30.5V35.5L53.75 38.75L53 38V30.5L55 28.5Z" fill="#424242" fill-opacity="0.3"/>
<path d="M53 18V25.5L55 27.5L57 25.5V20.5L53.75 17.25L53 18Z" fill="#424242" fill-opacity="0.3"/>
<path d="M65 28.5L63 30.5V35.5L66.25 38.75L67 38V30.5L65 28.5Z" fill="#212121"/>
<path d="M63 25.5L65 27.5L67 25.5V18L66.25 17.25L63 20.5V25.5Z" fill="#212121"/>
<path d="M71 40H81L81.75 39.25L78.5 36H73.5L70.25 39.25L71 40Z" fill="#212121"/>
<path d="M71.5 28L73.5 26H78.5L80.5 28L78.5 30H73.5L71.5 28Z" fill="#212121"/>
<path d="M71 28.5L73 30.5V35.5L69.75 38.75L69 38V30.5L71 28.5Z" fill="#212121"/>
<path d="M69 18V25.5L71 27.5L73 25.5V20.5L69.75 17.25L69 18Z" fill="#424242" fill-opacity="0.3"/>
<path d="M81 27.5L79 25.5V20.5L82.25 17.25L83 18V25.5L81 27.5Z" fill="#212121"/>
<path d="M81 28.5L79 30.5V35.5L82.25 38.75L83 38V30.5L81 28.5Z" fill="#424242" fill-opacity="0.3"/>
<path d="M71 16H81L81.75 16.75L78.5 20H73.5L70.25 16.75L71 16Z" fill="#212121"/>
<g filter="url(#filter2_ii_2247_3638)">
<path d="M70.4853 51.6569L67.6569 54.4853L73.3137 60.1421L67.6569 65.799L70.4853 68.6274L76.1421 62.9706L81.799 68.6274L84.6274 65.799L78.9706 60.1421L84.6274 54.4853L81.799 51.6569L76.1421 57.3137L70.4853 51.6569Z" fill="#424242"/>
</g>
<g filter="url(#filter3_ii_2247_3638)">
<circle cx="76" cy="92" r="18" fill="#388E3C"/>
</g>
<g filter="url(#filter4_ii_2247_3638)">
<path d="M66 88C66 86.8954 66.8954 86 68 86H84C85.1046 86 86 86.8954 86 88C86 89.1046 85.1046 90 84 90H68C66.8954 90 66 89.1046 66 88Z" fill="white"/>
<path d="M66 96C66 94.8954 66.8954 94 68 94H84C85.1046 94 86 94.8954 86 96C86 97.1046 85.1046 98 84 98H68C66.8954 98 66 97.1046 66 96Z" fill="white"/>
</g>
<g filter="url(#filter5_ii_2247_3638)">
<path d="M46 50H42V58H34V62H42V70H46V62H54V58H46V50Z" fill="#424242"/>
</g>
<g filter="url(#filter6_ii_2247_3638)">
<path d="M54 90H34V94H54V90Z" fill="#424242"/>
<path d="M47 85C47 86.6569 45.6569 88 44 88C42.3431 88 41 86.6569 41 85C41 83.3431 42.3431 82 44 82C45.6569 82 47 83.3431 47 85Z" fill="#424242"/>
<path d="M47 99C47 100.657 45.6569 102 44 102C42.3431 102 41 100.657 41 99C41 97.3431 42.3431 96 44 96C45.6569 96 47 97.3431 47 99Z" fill="#424242"/>
</g>
<rect width="120" height="120" fill="url(#paint3_radial_2247_3638)" fill-opacity="0.2"/>
</g>
<defs>
<filter id="filter0_ii_2247_3638" x="20" y="4" width="80" height="112" filterUnits="userSpaceOnUse" color-interpolation-filters="sRGB">
<feFlood flood-opacity="0" result="BackgroundImageFix"/>
<feBlend mode="normal" in="SourceGraphic" in2="BackgroundImageFix" result="shape"/>
<feColorMatrix in="SourceAlpha" type="matrix" values="0 0 0 0 0 0 0 0 0 0 0 0 0 0 0 0 0 0 127 0" result="hardAlpha"/>
<feOffset dy="-2"/>
<feComposite in2="hardAlpha" operator="arithmetic" k2="-1" k3="1"/>
<feColorMatrix type="matrix" values="0 0 0 0 0.619608 0 0 0 0 0.619608 0 0 0 0 0.619608 0 0 0 0.5 0"/>
<feBlend mode="normal" in2="shape" result="effect1_innerShadow_2247_3638"/>
<feColorMatrix in="SourceAlpha" type="matrix" values="0 0 0 0 0 0 0 0 0 0 0 0 0 0 0 0 0 0 127 0" result="hardAlpha"/>
<feOffset dy="2"/>
<feComposite in2="hardAlpha" operator="arithmetic" k2="-1" k3="1"/>
<feColorMatrix type="matrix" values="0 0 0 0 1 0 0 0 0 1 0 0 0 0 1 0 0 0 0.5 0"/>
<feBlend mode="normal" in2="effect1_innerShadow_2247_3638" result="effect2_innerShadow_2247_3638"/>
</filter>
<filter id="filter1_ii_2247_3638" x="28" y="12" width="64" height="32" filterUnits="userSpaceOnUse" color-interpolation-filters="sRGB">
<feFlood flood-opacity="0" result="BackgroundImageFix"/>
<feBlend mode="normal" in="SourceGraphic" in2="BackgroundImageFix" result="shape"/>
<feColorMatrix in="SourceAlpha" type="matrix" values="0 0 0 0 0 0 0 0 0 0 0 0 0 0 0 0 0 0 127 0" result="hardAlpha"/>
<feOffset dy="1"/>
<feComposite in2="hardAlpha" operator="arithmetic" k2="-1" k3="1"/>
<feColorMatrix type="matrix" values="0 0 0 0 0.882353 0 0 0 0 0.960784 0 0 0 0 0.996078 0 0 0 0.5 0"/>
<feBlend mode="normal" in2="shape" result="effect1_innerShadow_2247_3638"/>
<feColorMatrix in="SourceAlpha" type="matrix" values="0 0 0 0 0 0 0 0 0 0 0 0 0 0 0 0 0 0 127 0" result="hardAlpha"/>
<feOffset dy="-1"/>
<feComposite in2="hardAlpha" operator="arithmetic" k2="-1" k3="1"/>
<feColorMatrix type="matrix" values="0 0 0 0 0.160784 0 0 0 0 0.713726 0 0 0 0 0.964706 0 0 0 0.5 0"/>
<feBlend mode="normal" in2="effect1_innerShadow_2247_3638" result="effect2_innerShadow_2247_3638"/>
</filter>
<filter id="filter2_ii_2247_3638" x="67.6569" y="51.6569" width="16.9706" height="16.9706" filterUnits="userSpaceOnUse" color-interpolation-filters="sRGB">
<feFlood flood-opacity="0" result="BackgroundImageFix"/>
<feBlend mode="normal" in="SourceGraphic" in2="BackgroundImageFix" result="shape"/>
<feColorMatrix in="SourceAlpha" type="matrix" values="0 0 0 0 0 0 0 0 0 0 0 0 0 0 0 0 0 0 127 0" result="hardAlpha"/>
<feOffset dy="1"/>
<feComposite in2="hardAlpha" operator="arithmetic" k2="-1" k3="1"/>
<feColorMatrix type="matrix" values="0 0 0 0 0.619608 0 0 0 0 0.619608 0 0 0 0 0.619608 0 0 0 0.5 0"/>
<feBlend mode="normal" in2="shape" result="effect1_innerShadow_2247_3638"/>
<feColorMatrix in="SourceAlpha" type="matrix" values="0 0 0 0 0 0 0 0 0 0 0 0 0 0 0 0 0 0 127 0" result="hardAlpha"/>
<feOffset dy="-1"/>
<feComposite in2="hardAlpha" operator="arithmetic" k2="-1" k3="1"/>
<feColorMatrix type="matrix" values="0 0 0 0 0.129412 0 0 0 0 0.129412 0 0 0 0 0.129412 0 0 0 0.5 0"/>
<feBlend mode="normal" in2="effect1_innerShadow_2247_3638" result="effect2_innerShadow_2247_3638"/>
</filter>
<filter id="filter3_ii_2247_3638" x="58" y="74" width="36" height="36" filterUnits="userSpaceOnUse" color-interpolation-filters="sRGB">
<feFlood flood-opacity="0" result="BackgroundImageFix"/>
<feBlend mode="normal" in="SourceGraphic" in2="BackgroundImageFix" result="shape"/>
<feColorMatrix in="SourceAlpha" type="matrix" values="0 0 0 0 0 0 0 0 0 0 0 0 0 0 0 0 0 0 127 0" result="hardAlpha"/>
<feOffset dy="-2"/>
<feComposite in2="hardAlpha" operator="arithmetic" k2="-1" k3="1"/>
<feColorMatrix type="matrix" values="0 0 0 0 0.105882 0 0 0 0 0.368627 0 0 0 0 0.12549 0 0 0 0.5 0"/>
<feBlend mode="normal" in2="shape" result="effect1_innerShadow_2247_3638"/>
<feColorMatrix in="SourceAlpha" type="matrix" values="0 0 0 0 0 0 0 0 0 0 0 0 0 0 0 0 0 0 127 0" result="hardAlpha"/>
<feOffset dy="1"/>
<feComposite in2="hardAlpha" operator="arithmetic" k2="-1" k3="1"/>
<feColorMatrix type="matrix" values="0 0 0 0 0.4 0 0 0 0 0.733333 0 0 0 0 0.415686 0 0 0 0.5 0"/>
<feBlend mode="normal" in2="effect1_innerShadow_2247_3638" result="effect2_innerShadow_2247_3638"/>
</filter>
<filter id="filter4_ii_2247_3638" x="66" y="86" width="20" height="14" filterUnits="userSpaceOnUse" color-interpolation-filters="sRGB">
<feFlood flood-opacity="0" result="BackgroundImageFix"/>
<feBlend mode="normal" in="SourceGraphic" in2="BackgroundImageFix" result="shape"/>
<feColorMatrix in="SourceAlpha" type="matrix" values="0 0 0 0 0 0 0 0 0 0 0 0 0 0 0 0 0 0 127 0" result="hardAlpha"/>
<feOffset dy="2"/>
<feGaussianBlur stdDeviation="2"/>
<feComposite in2="hardAlpha" operator="arithmetic" k2="-1" k3="1"/>
<feColorMatrix type="matrix" values="0 0 0 0 0.105882 0 0 0 0 0.368627 0 0 0 0 0.12549 0 0 0 0.5 0"/>
<feBlend mode="normal" in2="shape" result="effect1_innerShadow_2247_3638"/>
<feColorMatrix in="SourceAlpha" type="matrix" values="0 0 0 0 0 0 0 0 0 0 0 0 0 0 0 0 0 0 127 0" result="hardAlpha"/>
<feOffset dy="1"/>
<feComposite in2="hardAlpha" operator="arithmetic" k2="-1" k3="1"/>
<feColorMatrix type="matrix" values="0 0 0 0 0.262745 0 0 0 0 0.627451 0 0 0 0 0.278431 0 0 0 0.5 0"/>
<feBlend mode="normal" in2="effect1_innerShadow_2247_3638" result="effect2_innerShadow_2247_3638"/>
</filter>
<filter id="filter5_ii_2247_3638" x="34" y="50" width="20" height="20" filterUnits="userSpaceOnUse" color-interpolation-filters="sRGB">
<feFlood flood-opacity="0" result="BackgroundImageFix"/>
<feBlend mode="normal" in="SourceGraphic" in2="BackgroundImageFix" result="shape"/>
<feColorMatrix in="SourceAlpha" type="matrix" values="0 0 0 0 0 0 0 0 0 0 0 0 0 0 0 0 0 0 127 0" result="hardAlpha"/>
<feOffset dy="1"/>
<feComposite in2="hardAlpha" operator="arithmetic" k2="-1" k3="1"/>
<feColorMatrix type="matrix" values="0 0 0 0 0.619608 0 0 0 0 0.619608 0 0 0 0 0.619608 0 0 0 0.5 0"/>
<feBlend mode="normal" in2="shape" result="effect1_innerShadow_2247_3638"/>
<feColorMatrix in="SourceAlpha" type="matrix" values="0 0 0 0 0 0 0 0 0 0 0 0 0 0 0 0 0 0 127 0" result="hardAlpha"/>
<feOffset dy="-1"/>
<feComposite in2="hardAlpha" operator="arithmetic" k2="-1" k3="1"/>
<feColorMatrix type="matrix" values="0 0 0 0 0.129412 0 0 0 0 0.129412 0 0 0 0 0.129412 0 0 0 0.5 0"/>
<feBlend mode="normal" in2="effect1_innerShadow_2247_3638" result="effect2_innerShadow_2247_3638"/>
</filter>
<filter id="filter6_ii_2247_3638" x="34" y="82" width="20" height="20" filterUnits="userSpaceOnUse" color-interpolation-filters="sRGB">
<feFlood flood-opacity="0" result="BackgroundImageFix"/>
<feBlend mode="normal" in="SourceGraphic" in2="BackgroundImageFix" result="shape"/>
<feColorMatrix in="SourceAlpha" type="matrix" values="0 0 0 0 0 0 0 0 0 0 0 0 0 0 0 0 0 0 127 0" result="hardAlpha"/>
<feOffset dy="1"/>
<feComposite in2="hardAlpha" operator="arithmetic" k2="-1" k3="1"/>
<feColorMatrix type="matrix" values="0 0 0 0 0.619608 0 0 0 0 0.619608 0 0 0 0 0.619608 0 0 0 0.5 0"/>
<feBlend mode="normal" in2="shape" result="effect1_innerShadow_2247_3638"/>
<feColorMatrix in="SourceAlpha" type="matrix" values="0 0 0 0 0 0 0 0 0 0 0 0 0 0 0 0 0 0 127 0" result="hardAlpha"/>
<feOffset dy="-1"/>
<feComposite in2="hardAlpha" operator="arithmetic" k2="-1" k3="1"/>
<feColorMatrix type="matrix" values="0 0 0 0 0.129412 0 0 0 0 0.129412 0 0 0 0 0.129412 0 0 0 0.5 0"/>
<feBlend mode="normal" in2="effect1_innerShadow_2247_3638" result="effect2_innerShadow_2247_3638"/>
</filter>
<linearGradient id="paint0_linear_2247_3638" x1="60" y1="4" x2="60" y2="116" gradientUnits="userSpaceOnUse">
<stop stop-color="#8E24AA"/>
<stop offset="1" stop-color="#6A1B9A"/>
</linearGradient>
<linearGradient id="paint1_linear_2247_3638" x1="60" y1="4" x2="60" y2="116" gradientUnits="userSpaceOnUse">
<stop stop-color="#EEEEEE"/>
<stop offset="1" stop-color="#BDBDBD"/>
</linearGradient>
<linearGradient id="paint2_linear_2247_3638" x1="60" y1="44" x2="60" y2="12" gradientUnits="userSpaceOnUse">
<stop stop-color="#81D4FA"/>
<stop offset="1" stop-color="#B3E5FC"/>
</linearGradient>
<radialGradient id="paint3_radial_2247_3638" cx="0" cy="0" r="1" gradientUnits="userSpaceOnUse" gradientTransform="rotate(45) scale(169.706)">
<stop stop-color="white"/>
<stop offset="1" stop-color="white" stop-opacity="0"/>
</radialGradient>
</defs>
</svg>
