<svg width="120" height="120" viewBox="0 0 120 120" fill="none" xmlns="http://www.w3.org/2000/svg">
<mask id="mask0_2245_3522" style="mask-type:alpha" maskUnits="userSpaceOnUse" x="12" y="12" width="96" height="96">
<path d="M20 16C20 13.7909 21.7909 12 24 12H96C98.2091 12 100 13.7909 100 16V32H101C102.657 32 104 33.3431 104 35V49.0703C106.391 50.4535 108 53.0389 108 56V100C108 104.418 104.418 108 100 108H20C15.5817 108 12 104.418 12 100V56C12 53.0389 13.6088 50.4535 16 49.0703V35C16 33.3431 17.3431 32 19 32H20V16Z" fill="#D9D9D9"/>
</mask>
<g mask="url(#mask0_2245_3522)">
<mask id="path-2-inside-1_2245_3522" fill="white">
<path d="M16 35C16 33.3431 17.3431 32 19 32H101C102.657 32 104 33.3431 104 35V73C104 74.6569 102.657 76 101 76H19C17.3431 76 16 74.6569 16 73V35Z"/>
</mask>
<path d="M16 35C16 33.3431 17.3431 32 19 32H101C102.657 32 104 33.3431 104 35V73C104 74.6569 102.657 76 101 76H19C17.3431 76 16 74.6569 16 73V35Z" fill="#D9D9D9"/>
<path d="M16 32H104H16ZM104 76H16H104ZM19 76C15.134 76 12 72.866 12 69V39C12 35.134 15.134 32 19 32H20C20 32 20 33.3431 20 35V73C20 74.6569 20 76 20 76H19ZM101 32C104.866 32 108 35.134 108 39V69C108 72.866 104.866 76 101 76H100C100 76 100 74.6569 100 73V35C100 33.3431 100 32 100 32H101Z" fill="#1A237E" mask="url(#path-2-inside-1_2245_3522)"/>
<g filter="url(#filter0_d_2245_3522)">
<rect x="20" y="12" width="80" height="84" rx="4" fill="#B3B3B3"/>
</g>
<g filter="url(#filter1_d_2245_3522)">
<rect x="20" y="20" width="80" height="78" rx="4" fill="#E6E6E6"/>
</g>
<g filter="url(#filter2_d_2245_3522)">
<path d="M20 100H100V44L84 28H25C22.2386 28 20 30.2386 20 33V100Z" fill="white"/>
</g>
<path d="M100 44L84 28V40C84 42.2091 85.7909 44 88 44H100Z" fill="#9FA8DA"/>
<g filter="url(#filter3_diii_2245_3522)">
<path d="M20 108H100C104.418 108 108 104.418 108 100V56C108 51.5817 104.418 48 100 48H20C15.5817 48 12 51.5817 12 56V100C12 104.418 15.5817 108 20 108Z" fill="url(#paint0_linear_2245_3522)"/>
</g>
<g filter="url(#filter4_di_2245_3522)">
<rect x="44" y="84" width="32" height="8" rx="2" fill="url(#paint1_linear_2245_3522)"/>
</g>
<rect width="120" height="120" fill="url(#paint2_radial_2245_3522)" fill-opacity="0.2"/>
</g>
<defs>
<filter id="filter0_d_2245_3522" x="12" y="2" width="96" height="100" filterUnits="userSpaceOnUse" color-interpolation-filters="sRGB">
<feFlood flood-opacity="0" result="BackgroundImageFix"/>
<feColorMatrix in="SourceAlpha" type="matrix" values="0 0 0 0 0 0 0 0 0 0 0 0 0 0 0 0 0 0 127 0" result="hardAlpha"/>
<feOffset dy="-2"/>
<feGaussianBlur stdDeviation="4"/>
<feComposite in2="hardAlpha" operator="out"/>
<feColorMatrix type="matrix" values="0 0 0 0 0 0 0 0 0 0 0 0 0 0 0 0 0 0 0.15 0"/>
<feBlend mode="normal" in2="BackgroundImageFix" result="effect1_dropShadow_2245_3522"/>
<feBlend mode="normal" in="SourceGraphic" in2="effect1_dropShadow_2245_3522" result="shape"/>
</filter>
<filter id="filter1_d_2245_3522" x="12" y="10" width="96" height="94" filterUnits="userSpaceOnUse" color-interpolation-filters="sRGB">
<feFlood flood-opacity="0" result="BackgroundImageFix"/>
<feColorMatrix in="SourceAlpha" type="matrix" values="0 0 0 0 0 0 0 0 0 0 0 0 0 0 0 0 0 0 127 0" result="hardAlpha"/>
<feOffset dy="-2"/>
<feGaussianBlur stdDeviation="4"/>
<feComposite in2="hardAlpha" operator="out"/>
<feColorMatrix type="matrix" values="0 0 0 0 0 0 0 0 0 0 0 0 0 0 0 0 0 0 0.15 0"/>
<feBlend mode="normal" in2="BackgroundImageFix" result="effect1_dropShadow_2245_3522"/>
<feBlend mode="normal" in="SourceGraphic" in2="effect1_dropShadow_2245_3522" result="shape"/>
</filter>
<filter id="filter2_d_2245_3522" x="12" y="18" width="96" height="88" filterUnits="userSpaceOnUse" color-interpolation-filters="sRGB">
<feFlood flood-opacity="0" result="BackgroundImageFix"/>
<feColorMatrix in="SourceAlpha" type="matrix" values="0 0 0 0 0 0 0 0 0 0 0 0 0 0 0 0 0 0 127 0" result="hardAlpha"/>
<feOffset dy="-2"/>
<feGaussianBlur stdDeviation="4"/>
<feComposite in2="hardAlpha" operator="out"/>
<feColorMatrix type="matrix" values="0 0 0 0 0 0 0 0 0 0 0 0 0 0 0 0 0 0 0.15 0"/>
<feBlend mode="normal" in2="BackgroundImageFix" result="effect1_dropShadow_2245_3522"/>
<feBlend mode="normal" in="SourceGraphic" in2="effect1_dropShadow_2245_3522" result="shape"/>
</filter>
<filter id="filter3_diii_2245_3522" x="4" y="32" width="112" height="82" filterUnits="userSpaceOnUse" color-interpolation-filters="sRGB">
<feFlood flood-opacity="0" result="BackgroundImageFix"/>
<feColorMatrix in="SourceAlpha" type="matrix" values="0 0 0 0 0 0 0 0 0 0 0 0 0 0 0 0 0 0 127 0" result="hardAlpha"/>
<feOffset dy="-2"/>
<feGaussianBlur stdDeviation="4"/>
<feComposite in2="hardAlpha" operator="out"/>
<feColorMatrix type="matrix" values="0 0 0 0 0 0 0 0 0 0 0 0 0 0 0 0 0 0 0.2 0"/>
<feBlend mode="normal" in2="BackgroundImageFix" result="effect1_dropShadow_2245_3522"/>
<feBlend mode="normal" in="SourceGraphic" in2="effect1_dropShadow_2245_3522" result="shape"/>
<feColorMatrix in="SourceAlpha" type="matrix" values="0 0 0 0 0 0 0 0 0 0 0 0 0 0 0 0 0 0 127 0" result="hardAlpha"/>
<feOffset dy="-16"/>
<feGaussianBlur stdDeviation="8"/>
<feComposite in2="hardAlpha" operator="arithmetic" k2="-1" k3="1"/>
<feColorMatrix type="matrix" values="0 0 0 0 0.247059 0 0 0 0 0.317647 0 0 0 0 0.709804 0 0 0 0.5 0"/>
<feBlend mode="normal" in2="shape" result="effect2_innerShadow_2245_3522"/>
<feColorMatrix in="SourceAlpha" type="matrix" values="0 0 0 0 0 0 0 0 0 0 0 0 0 0 0 0 0 0 127 0" result="hardAlpha"/>
<feOffset dy="2"/>
<feComposite in2="hardAlpha" operator="arithmetic" k2="-1" k3="1"/>
<feColorMatrix type="matrix" values="0 0 0 0 0.623529 0 0 0 0 0.658824 0 0 0 0 0.854902 0 0 0 0.5 0"/>
<feBlend mode="normal" in2="effect2_innerShadow_2245_3522" result="effect3_innerShadow_2245_3522"/>
<feColorMatrix in="SourceAlpha" type="matrix" values="0 0 0 0 0 0 0 0 0 0 0 0 0 0 0 0 0 0 127 0" result="hardAlpha"/>
<feOffset dy="-2"/>
<feComposite in2="hardAlpha" operator="arithmetic" k2="-1" k3="1"/>
<feColorMatrix type="matrix" values="0 0 0 0 0.188235 0 0 0 0 0.247059 0 0 0 0 0.623529 0 0 0 0.5 0"/>
<feBlend mode="normal" in2="effect3_innerShadow_2245_3522" result="effect4_innerShadow_2245_3522"/>
</filter>
<filter id="filter4_di_2245_3522" x="44" y="84" width="32" height="9" filterUnits="userSpaceOnUse" color-interpolation-filters="sRGB">
<feFlood flood-opacity="0" result="BackgroundImageFix"/>
<feColorMatrix in="SourceAlpha" type="matrix" values="0 0 0 0 0 0 0 0 0 0 0 0 0 0 0 0 0 0 127 0" result="hardAlpha"/>
<feOffset dy="1"/>
<feComposite in2="hardAlpha" operator="out"/>
<feColorMatrix type="matrix" values="0 0 0 0 0.101961 0 0 0 0 0.137255 0 0 0 0 0.494118 0 0 0 0.5 0"/>
<feBlend mode="normal" in2="BackgroundImageFix" result="effect1_dropShadow_2245_3522"/>
<feBlend mode="normal" in="SourceGraphic" in2="effect1_dropShadow_2245_3522" result="shape"/>
<feColorMatrix in="SourceAlpha" type="matrix" values="0 0 0 0 0 0 0 0 0 0 0 0 0 0 0 0 0 0 127 0" result="hardAlpha"/>
<feOffset dy="1"/>
<feComposite in2="hardAlpha" operator="arithmetic" k2="-1" k3="1"/>
<feColorMatrix type="matrix" values="0 0 0 0 1 0 0 0 0 1 0 0 0 0 1 0 0 0 1 0"/>
<feBlend mode="normal" in2="shape" result="effect2_innerShadow_2245_3522"/>
</filter>
<linearGradient id="paint0_linear_2245_3522" x1="60" y1="48" x2="60" y2="108" gradientUnits="userSpaceOnUse">
<stop stop-color="#5C6BC0"/>
<stop offset="1" stop-color="#3F51B5"/>
</linearGradient>
<linearGradient id="paint1_linear_2245_3522" x1="44" y1="88" x2="76" y2="88" gradientUnits="userSpaceOnUse">
<stop stop-color="#F5F5F5"/>
<stop offset="1" stop-color="#BDBDBD"/>
</linearGradient>
<radialGradient id="paint2_radial_2245_3522" cx="0" cy="0" r="1" gradientUnits="userSpaceOnUse" gradientTransform="rotate(45) scale(169.706)">
<stop stop-color="white"/>
<stop offset="1" stop-color="white" stop-opacity="0"/>
</radialGradient>
</defs>
</svg>
