<svg width="120" height="120" viewBox="0 0 120 120" fill="none" xmlns="http://www.w3.org/2000/svg">
<g filter="url(#filter0_ii_2249_3766)">
<path fill-rule="evenodd" clip-rule="evenodd" d="M91.6329 90.3422C101.666 82.4609 108 70.8931 108 58C108 34.2518 86.5097 15 60 15C33.4903 15 12 34.2518 12 58C12 81.7482 33.4903 101 60 101C66.812 101 73.2926 99.7288 79.1623 97.4368C84.3536 103.045 90.9156 106.031 98.5006 105.656C100.158 105.573 100.738 103.551 99.578 102.365C96.2307 98.9394 93.3284 94.9497 91.6329 90.3422Z" fill="url(#paint0_linear_2249_3766)"/>
</g>
<mask id="mask0_2249_3766" style="mask-type:alpha" maskUnits="userSpaceOnUse" x="12" y="4" width="96" height="102">
<path fill-rule="evenodd" clip-rule="evenodd" d="M47.2409 13.4211C48.8542 10.5267 47.8156 6.87241 44.9212 5.2591C42.0267 3.64579 38.3724 4.68437 36.7591 7.57884C33.8514 12.7957 31.8128 18.3729 30.4561 24.1076C19.2215 31.9779 12 44.2335 12 58C12 81.7482 33.4903 101 60 101C66.812 101 73.2926 99.7288 79.1623 97.4368C84.3536 103.045 90.9156 106.031 98.5006 105.656C100.158 105.573 100.738 103.551 99.578 102.365C96.2307 98.9394 93.3284 94.9497 91.6329 90.3422C101.666 82.4609 108 70.8931 108 58C108 34.2518 86.5097 15 60 15C54.9235 15 50.0311 15.706 45.4384 17.0143C45.9901 15.7872 46.5902 14.5886 47.2409 13.4211Z" fill="#FFF9C4"/>
</mask>
<g mask="url(#mask0_2249_3766)">
<g filter="url(#filter1_dii_2249_3766)">
<path d="M34.194 44.5704C34.1215 67.9276 41.9035 91.647 46.7778 103.415C47.0596 104.095 47.6908 104.542 48.4242 104.608L60.8503 105.738C62.2434 105.865 63.345 104.558 63.063 103.187C60.9027 92.6921 59.869 71.8639 71.2332 65.5C69.4789 61.5044 46.5502 65.9902 34.194 44.5704Z" fill="#FFF9C4"/>
<path d="M42 10.5C25.3493 40.3733 39.397 85.5957 46.7778 103.415C47.0596 104.095 47.6908 104.542 48.4242 104.608L60.8503 105.738C62.2434 105.865 63.345 104.558 63.063 103.187C60.9027 92.6921 59.869 71.8639 71.2332 65.5M34.1535 44.5C46.5 66 69.477 61.5 71.2332 65.5M71.2332 65.5C78 78 79.7332 90.5 80.7332 104.5" stroke="#FFF9C4" stroke-width="12" stroke-linecap="round"/>
<circle cx="63.7332" cy="37" r="13" fill="#FFF9C4"/>
</g>
<rect width="120" height="120" fill="url(#paint1_radial_2249_3766)" fill-opacity="0.1"/>
</g>
<defs>
<filter id="filter0_ii_2249_3766" x="12" y="15" width="96" height="90.6871" filterUnits="userSpaceOnUse" color-interpolation-filters="sRGB">
<feFlood flood-opacity="0" result="BackgroundImageFix"/>
<feBlend mode="normal" in="SourceGraphic" in2="BackgroundImageFix" result="shape"/>
<feColorMatrix in="SourceAlpha" type="matrix" values="0 0 0 0 0 0 0 0 0 0 0 0 0 0 0 0 0 0 127 0" result="hardAlpha"/>
<feOffset dy="2"/>
<feComposite in2="hardAlpha" operator="arithmetic" k2="-1" k3="1"/>
<feColorMatrix type="matrix" values="0 0 0 0 1 0 0 0 0 0.541176 0 0 0 0 0.396078 0 0 0 0.5 0"/>
<feBlend mode="normal" in2="shape" result="effect1_innerShadow_2249_3766"/>
<feColorMatrix in="SourceAlpha" type="matrix" values="0 0 0 0 0 0 0 0 0 0 0 0 0 0 0 0 0 0 127 0" result="hardAlpha"/>
<feOffset dy="-2"/>
<feComposite in2="hardAlpha" operator="arithmetic" k2="-1" k3="1"/>
<feColorMatrix type="matrix" values="0 0 0 0 0.847059 0 0 0 0 0.262745 0 0 0 0 0.0823529 0 0 0 0.5 0"/>
<feBlend mode="normal" in2="effect1_innerShadow_2249_3766" result="effect2_innerShadow_2249_3766"/>
</filter>
<filter id="filter1_dii_2249_3766" x="24.1525" y="0.498901" width="66.581" height="119.25" filterUnits="userSpaceOnUse" color-interpolation-filters="sRGB">
<feFlood flood-opacity="0" result="BackgroundImageFix"/>
<feColorMatrix in="SourceAlpha" type="matrix" values="0 0 0 0 0 0 0 0 0 0 0 0 0 0 0 0 0 0 127 0" result="hardAlpha"/>
<feOffset dy="4"/>
<feGaussianBlur stdDeviation="2"/>
<feComposite in2="hardAlpha" operator="out"/>
<feColorMatrix type="matrix" values="0 0 0 0 0.847059 0 0 0 0 0.262745 0 0 0 0 0.0823529 0 0 0 1 0"/>
<feBlend mode="normal" in2="BackgroundImageFix" result="effect1_dropShadow_2249_3766"/>
<feBlend mode="normal" in="SourceGraphic" in2="effect1_dropShadow_2249_3766" result="shape"/>
<feColorMatrix in="SourceAlpha" type="matrix" values="0 0 0 0 0 0 0 0 0 0 0 0 0 0 0 0 0 0 127 0" result="hardAlpha"/>
<feOffset dy="4"/>
<feGaussianBlur stdDeviation="4"/>
<feComposite in2="hardAlpha" operator="arithmetic" k2="-1" k3="1"/>
<feColorMatrix type="matrix" values="0 0 0 0 1 0 0 0 0 0.992157 0 0 0 0 0.905882 0 0 0 1 0"/>
<feBlend mode="normal" in2="shape" result="effect2_innerShadow_2249_3766"/>
<feColorMatrix in="SourceAlpha" type="matrix" values="0 0 0 0 0 0 0 0 0 0 0 0 0 0 0 0 0 0 127 0" result="hardAlpha"/>
<feOffset dy="-4"/>
<feGaussianBlur stdDeviation="4"/>
<feComposite in2="hardAlpha" operator="arithmetic" k2="-1" k3="1"/>
<feColorMatrix type="matrix" values="0 0 0 0 1 0 0 0 0 0.835294 0 0 0 0 0.309804 0 0 0 1 0"/>
<feBlend mode="normal" in2="effect2_innerShadow_2249_3766" result="effect3_innerShadow_2249_3766"/>
</filter>
<linearGradient id="paint0_linear_2249_3766" x1="60" y1="15" x2="60" y2="105.687" gradientUnits="userSpaceOnUse">
<stop stop-color="#FF7043"/>
<stop offset="1" stop-color="#E64A19"/>
</linearGradient>
<radialGradient id="paint1_radial_2249_3766" cx="0" cy="0" r="1" gradientUnits="userSpaceOnUse" gradientTransform="rotate(45) scale(169.706)">
<stop stop-color="white"/>
<stop offset="1" stop-color="white" stop-opacity="0"/>
</radialGradient>
</defs>
</svg>
