<?xml version="1.0" standalone="no"?><!-- Generator: Gravit.io --><svg xmlns="http://www.w3.org/2000/svg" xmlns:xlink="http://www.w3.org/1999/xlink" style="isolation:isolate" viewBox="0 0 2048 2048" width="2048px" height="2048px"><defs><clipPath id="_clipPath_pZVDvChlZxoeEium7iozP87rmG9iTDQe"><rect width="2048" height="2048"/></clipPath></defs><g clip-path="url(#_clipPath_pZVDvChlZxoeEium7iozP87rmG9iTDQe)"><circle vector-effect="non-scaling-stroke" cx="1023.9999999999998" cy="1024.0000000000005" r="1024.0000000000002" fill="rgb(120,194,87)"/><g><g><g><path d=" M 1372.495 858.456 L 1481.264 657.729 C 1488.404 644.44 1485.864 634.249 1473.622 627.084 C 1460.334 620.905 1450.124 624.036 1442.989 636.255 L 1332.699 838.587 C 1235.652 795.663 1133.009 774.162 1024.77 774.162 C 916.508 774.162 813.856 795.668 716.845 838.587 L 606.55 636.255 C 599.383 624.036 589.174 620.933 575.917 627.084 C 563.648 634.282 561.108 644.44 568.275 657.729 L 677.049 858.456 C 566.754 914.725 478.911 993.089 413.552 1093.721 C 348.193 1194.407 315.5 1304.436 315.5 1424 L 1732.5 1424 C 1732.5 1304.463 1699.802 1194.43 1634.448 1093.721 C 1569.084 993.089 1481.748 914.725 1372.495 858.456 Z  M 743.643 1150.418 C 731.88 1162.213 717.831 1168.083 701.501 1168.083 C 685.138 1168.083 671.375 1162.213 660.147 1150.418 C 648.919 1138.678 643.304 1124.679 643.304 1108.287 C 643.304 1091.95 648.919 1077.923 660.147 1066.156 C 671.375 1054.416 685.17 1048.546 701.501 1048.546 C 717.831 1048.546 731.88 1054.416 743.643 1066.156 C 755.378 1077.951 761.273 1091.95 761.273 1108.287 C 761.241 1124.652 755.35 1138.678 743.643 1150.418 Z  M 1389.333 1150.418 C 1378.082 1162.213 1364.286 1168.083 1347.983 1168.083 C 1331.616 1168.083 1317.572 1162.213 1305.832 1150.418 C 1294.074 1138.678 1288.206 1124.679 1288.206 1108.287 C 1288.206 1091.95 1294.074 1077.923 1305.832 1066.156 C 1317.572 1054.416 1331.616 1048.546 1347.983 1048.546 C 1364.314 1048.546 1378.077 1054.416 1389.333 1066.156 C 1400.57 1077.951 1406.175 1091.95 1406.175 1108.287 C 1406.175 1124.652 1400.566 1138.678 1389.333 1150.418 Z " fill="rgb(255,255,255)"/></g></g></g><g><path d=" M -569.98 436 L 1478.02 436 L 1478.02 2484 L -569.98 2484 L -569.98 436 Z " fill="none"/></g></g></svg>