<svg width="64" height="64" viewBox="0 0 64 64" fill="none" xmlns="http://www.w3.org/2000/svg">
<path opacity="0.2" d="M57.2 5H6.8C5.2536 5 4 6.2536 4 7.8V58.2C4 59.7464 5.2536 61 6.8 61H57.2C58.7464 61 60 59.7464 60 58.2V7.8C60 6.2536 58.7464 5 57.2 5Z" fill="black"/>
<path d="M57.2 4H6.8C5.2536 4 4 5.2536 4 6.8V57.2C4 58.7464 5.2536 60 6.8 60H57.2C58.7464 60 60 58.7464 60 57.2V6.8C60 5.2536 58.7464 4 57.2 4Z" fill="#3F3F3F"/>
<path opacity="0.2" d="M7.43711 3.99998V4.17498V5.68709H8.44609V4.17498V3.99998H7.43711ZM14.3113 3.99998V4.24061V5.70623V7.17186V8.63749V10.1031V11.5715V13.0371V14.4562V15.9219V17.3902V18.8558V20.368H15.3203V18.8558V17.3902V15.9219V14.4562V12.9906V11.525V10.0594V8.591V7.12538V5.65975V4.19413V3.99998H14.3113ZM17.7484 3.99998V4.22967V5.6953H18.7547V4.18592V3.99998H17.7484ZM24.6227 3.99998V4.24061V5.70623V7.17186V8.63749V10.1031V11.5715V13.0371V14.5027V15.9683V17.434V18.9023V20.368H25.6289V18.8558V17.3902V15.9219V14.4562V12.9906V11.525V10.0594V8.591V7.12538V5.65975V4.19413V3.99998H24.6227ZM31.4969 3.99998V4.24061V5.65975V7.12538V8.63749V10.0594V11.525V12.9906V14.5027V15.9683V17.434V18.9023V20.368V21.8336H32.5031V20.3215V18.8558V17.3902V15.9219V14.4562V12.9906V11.525V10.0594V8.591V7.12538V5.65975V4.19413V3.99998H31.4969ZM34.934 3.99998V4.22147V5.68709V7.15272H35.9402V5.64061V4.17498V3.99998H34.934ZM45.2453 3.99998V4.24061V5.70623V7.17186V8.63749V10.1031V11.5715V13.0371V14.4562V15.9219V17.3902V18.8558V20.368H46.2516V18.8558V17.3902V15.9219V14.4562V12.9906V11.525V10.0594V8.591V7.12538V5.65975V4.19413V3.99998H45.2453ZM48.6797 3.99998V4.22967V5.6953H49.6887V4.18592V3.99998H48.6797ZM52.1168 3.99998V4.24061V5.65975V7.12538V8.63749V10.0594V11.525V12.9906V14.5027V15.9683V17.434V18.9023V20.368V21.8336H53.1258V20.3215V18.8558V17.3902V15.9219V14.4562V12.9906V11.525V10.0594V8.591V7.12538V5.65975V4.19413V3.99998H52.1168ZM55.5539 3.99998V4.24061H56.5629V3.99998H55.5539ZM5.00898 4.65897C4.39624 5.1718 4 5.93482 4 6.79998V7.15272H5.00898V5.64061V4.65897ZM58.991 4.65897V5.6953V7.16366V8.62928V10.0949H60V6.79998C60 5.93482 59.6038 5.1718 58.991 4.65897ZM10.8742 5.65155V7.16366V8.62928V10.0949H11.8832V8.5828V7.11717V5.65155H10.8742ZM41.8082 5.65155V7.16366V8.62928V10.0949H42.8145V8.5828V7.11717V5.65155H41.8082ZM21.1855 5.66796V7.18007V8.64843V10.1141V11.5797V13.0453V14.5109V15.9793H22.1918V14.4672V12.9988V11.5332V10.0676V8.60194V7.13632V5.66796H21.1855ZM55.5539 7.13632V8.64843V10.1141V11.5797V13.0453V14.5109V15.9793V17.4449V18.9105V20.3762V21.8418V23.3101H56.5629V21.798V20.3297V18.8641V17.3984V15.9328V14.4672V12.9988V11.5332V10.0676V8.60194V7.13632H55.5539ZM7.43711 8.5828V10.0949V11.5168V13.0262V14.4945H8.44609V12.9824V11.5168V10.0484V8.5828H7.43711ZM38.3711 8.5828V10.0949V11.5168V13.0262V14.4945H39.3773V12.9824V11.5168V10.0484V8.5828H38.3711ZM17.7484 8.591V10.0594V11.5715H18.7547V10.0594V8.591H17.7484ZM28.0598 8.591V10.0594V11.5715H29.066V10.0594V8.591H28.0598ZM4 10.0484V11.5605V13.0262H5.00898V11.5168V10.0484H4ZM34.934 10.0484V11.5605V13.0262H35.9402V11.5168V10.0484H34.934ZM41.8082 12.9906V14.4562V15.9683V17.434V18.9023H42.8145V17.3902V15.9219V14.4562V12.9906H41.8082ZM58.991 12.9906V14.5027V15.9683V17.434V18.9023H60V17.3902V15.9219V14.4562V12.9906H58.991ZM17.7484 14.4672V15.9793V17.4449V18.9105V20.3762H18.7547V18.864V17.3984V15.9328V14.4672H17.7484ZM28.0598 14.4672V15.9793V17.4449V18.9105V20.3762H29.066V18.864V17.3984V15.9328V14.4672H28.0598ZM48.6797 14.4672V15.9793V17.4449V18.9105V20.3762H49.6887V18.864V17.3984V15.9328V14.4672H48.6797ZM4 15.9219V17.434V18.9023V20.368V21.8336H5.00898V20.3215V18.8558V17.3902V15.9219H4ZM34.934 15.9219V17.3902V18.8558V20.3215V21.8336H35.9402V20.3215V18.8558V17.3902V15.9219H34.934ZM7.43711 17.3902V18.9023H8.44609V17.3902H7.43711ZM38.3711 17.3902V18.9023H39.3773V17.3902H38.3711ZM21.1855 18.875V20.3871V21.8527H22.1918V20.3406V18.875H21.1855ZM7.43711 21.798V23.3101V24.7758H8.44609V23.2637V21.798H7.43711ZM10.8742 21.798V23.2637V24.7758H11.8832V23.2637V21.798H10.8742ZM38.3711 21.798V23.3101V24.7758H39.3773V23.2637V21.798H38.3711ZM41.8082 21.798V23.2637V24.7758H42.8145V23.2637V21.798H41.8082ZM58.991 21.798V23.3101V24.7758V26.2414H60V24.7293V23.2637V21.798H58.991ZM14.3113 23.2637V24.7758V26.2414V27.707V29.1726V30.641V32.1066V33.5723H15.3203V32.0601V30.5945V29.1289V27.6605V26.1949V24.7293V23.2637H14.3113ZM24.6227 23.2637V24.7758V26.2414V27.707V29.1726V30.641V32.1066V33.5723H25.6289V32.0601V30.5945V29.1289V27.6605V26.1949V24.7293V23.2637H24.6227ZM45.2453 23.2637V24.7758V26.1949V27.707V29.1726V30.641V32.1066V33.5723H46.2516V32.0601V30.5945V29.1289V27.6605V26.1949V24.7293V23.2637H45.2453ZM28.0598 23.272V24.7841V26.2497V27.7181V29.1837V30.6493H29.066V29.1371V27.6715V26.2059V24.7375V23.2719L28.0598 23.272ZM48.6797 23.272V24.7841V26.2497V27.7181V29.1837V30.6493H49.6887V29.1371V27.6715V26.2058V24.7375V23.2719L48.6797 23.272ZM4 24.7293V26.2414H5.00898V24.7293H4ZM31.4969 24.7293V26.2414V27.707H32.5031V26.1949V24.7293H31.4969ZM34.934 24.7293V26.2414H35.9402V24.7293H34.934ZM21.1855 24.7484V26.2605V27.7262V29.1918V30.6574V32.123V33.5914H22.1918V32.0793V30.6137V29.1453V27.6797V26.214V24.7484H21.1855ZM55.5539 26.2058V27.6715V29.1371V30.6492V32.0683V33.5367V35.0023V36.5144H56.5629V35.0023V33.5367V32.0683V30.6027V29.1371V27.6715V26.2058H55.5539ZM7.43711 27.6715V29.1836V30.6027V32.1148V33.5805H8.44609V32.0683V30.6027V29.1371V27.6715H7.43711ZM10.8742 27.6715V29.1371V30.6027V32.0683V33.5805V35.0488H11.8832V33.5367V32.0683V30.6027V29.1371V27.6715H10.8742ZM38.3711 27.6715V29.1836V30.6027V32.0683V33.5805H39.3773V32.0683V30.6027V29.1371V27.6715H38.3711ZM41.8082 27.6715V29.1371V30.6027V32.0683V33.5367V35.0488H42.8145V33.5367V32.0683V30.6027V29.1371V27.6715H41.8082ZM4 29.1371V30.6492V32.1148H5.00898V30.6027V29.1371H4ZM34.934 29.1371V30.6492V32.1148H35.9402V30.6027V29.1371H34.934ZM58.991 29.1371V30.6027V32.1148H60V30.6027V29.1371H58.991ZM31.4969 30.6027V32.1148V33.5805V35.0488V36.5144V37.9801H32.5031V36.468V35.0023V33.5367V32.0683V30.6027H31.4969ZM52.1168 30.6027V32.1148V33.5805V35.0488V36.5144V37.9801H53.1258V36.468V35.0023V33.5367V32.0683V30.6027H52.1168ZM17.7484 33.5449V35.057V36.5226V37.9883V39.4539H18.7547V37.9445V36.4762V35.0105V33.5449H17.7484ZM28.0598 33.5449V35.0105V36.5226V37.9883V39.4539H29.066V37.9445V36.4762V35.0105V33.5449H28.0598ZM48.6797 33.5449V35.057V36.5226V37.9883V39.4539H49.6887V37.9445V36.4762V35.0105V33.5449H48.6797ZM34.934 35.0105V36.5226V37.9445V39.4539V40.9222H35.9402V39.4101V37.9445V36.4762V35.0105H34.934ZM58.991 35.0105V36.5226V37.9445V39.4539V40.9222V42.3414V43.8535V45.3191V46.7848V48.2531H60V46.741V45.2754V43.807V42.3414V40.8758V39.4101V37.9445V36.4762V35.0105H58.991ZM14.3113 36.468V37.9801V39.4457V40.9113H15.3203V39.3992V37.9336V36.468H14.3113ZM24.6227 36.468V37.9801V39.4457V40.9113H25.6289V39.3992V37.9336V36.468H24.6227ZM45.2453 36.468V37.9801V39.4457V40.9113H46.2516V39.3992V37.9336V36.468H45.2453ZM7.43711 36.4763V37.9446V39.4102V40.9223V42.388V43.8536V45.3192V46.7848V48.2532V49.7188V51.1845V52.65H8.44609V51.1379V49.6722V48.2066V46.741V45.2754V43.807V42.3414V40.8758V39.4101V37.9445V36.4762L7.43711 36.4763ZM38.3711 36.4763V37.9446V39.4102V40.9223V42.3415V43.8536V45.3192V46.7848V48.2532V49.7188V51.1845V52.65H39.3773V51.1379V49.6722V48.2066V46.741V45.2754V43.807V42.3414V40.8758V39.4101V37.9445V36.4762L38.3711 36.4763ZM21.1855 36.4872V37.9993V39.4649V40.9305V42.3962V43.818V45.2837V46.7958H22.1918V45.2837V43.818V42.3497V40.884V39.4184V37.9528V36.4872H21.1855ZM10.8742 37.9446V39.4102V40.8758V42.3415V43.8071V45.2755V46.7411V48.2067V49.7188H11.8832V48.2067V46.7411V45.2755V43.8071V42.3415V40.8758V39.4102V37.9446H10.8742ZM41.8082 37.9446V39.4102V40.8758V42.3415V43.8071V45.2755V46.7411V48.2067V49.7188H42.8145V48.2067V46.7411V45.2755V43.8071V42.3415V40.8758V39.4102V37.9446H41.8082ZM55.5539 39.4102V40.9223H56.5629V39.4102H55.5539ZM31.4969 40.8758V42.388V43.8536V45.3192H32.5031V43.8071V42.3415V40.8758H31.4969ZM17.7484 42.3497V43.8618V45.3301V46.7958V48.2614V49.727V51.1489V52.661H18.7547V51.1489V49.6805V48.2149V46.7493V45.2837V43.818V42.3497H17.7484ZM28.0598 42.3497V43.8618V45.3301V46.7493V48.2149V49.727V51.1489V52.661H29.066V51.1489V49.6805V48.2149V46.7493V45.2837V43.818V42.3497H28.0598ZM48.6797 42.3497V43.8618V45.3301V46.7958V48.2614V49.727V51.1489V52.661H49.6887V51.1489V49.6805V48.2149V46.7493V45.2837V43.818V42.3497H48.6797ZM14.3113 43.8071V45.2755V46.7848H15.3203V45.2755V43.8071H14.3113ZM45.2453 43.8071V45.2755V46.7848H46.2516V45.2754V43.807L45.2453 43.8071ZM4 43.818V45.3301V46.7957V48.2613V49.727V51.1926V52.6609V54.1266V55.5922V57.0578H5.00898V55.5457V54.0801V52.6144V51.1488V49.6805V48.2148V46.7492V45.2836V43.818L4 43.818ZM34.934 43.818V45.2836V46.7492V48.2613V49.6805V51.1488V52.6145V54.1266V55.5922V57.0578H35.9402V55.5457V54.0801V52.6144V51.1488V49.6805V48.2148V46.7492V45.2836V43.818L34.934 43.818ZM55.5539 43.818V45.2836V46.7957H56.5629V45.2836V43.818H55.5539ZM31.4969 48.2149V49.6805V51.1926H32.5031V49.6805V48.2149H31.4969ZM52.1168 48.2149V49.6805V51.1926H53.1258V49.6805V48.2149H52.1168ZM24.6227 49.6805V51.1926V52.6609V54.1266H25.6289V52.6144V51.1488V49.6805L24.6227 49.6805ZM45.2453 49.6805V51.1926V52.6609V54.1266H46.2516V52.6144V51.1488V49.6805L45.2453 49.6805ZM55.5539 49.6914V51.2035V52.6691V54.1348V55.5566V57.0223V58.4879V60H56.5629V58.4879V57.0223V55.5566V54.0883V52.6226V51.157V49.6914L55.5539 49.6914ZM58.991 51.1488V52.6609V54.1266V55.5922H60V54.0801V52.6144V51.1488L58.991 51.1488ZM10.8742 52.6145V54.0801V55.5922V57.0578H11.8832V55.5457V54.0801V52.6144L10.8742 52.6145ZM41.8082 52.6145V54.0801V55.5922V57.0578H42.8145V55.5457V54.0801V52.6144L41.8082 52.6145ZM31.4969 54.0883V55.6004V57.0223V58.4879V60H32.5031V58.4879V57.0223V55.5566V54.0883H31.4969ZM52.1168 54.0883V55.6004V57.0223V58.4879V60H53.1258V58.4879V57.0223V55.5566V54.0883H52.1168ZM7.43711 55.5457V57.0578H8.44609V55.5457L7.43711 55.5457ZM38.3711 55.5457V57.0578H39.3773V55.5457L38.3711 55.5457ZM17.7484 55.5566V57.0688V58.4879V60H18.7547V58.4879V57.0223V55.5566L17.7484 55.5566ZM14.3113 57.0223V58.5344V60H15.3203V58.4879V57.0223L14.3113 57.0223ZM24.6227 57.0223V58.4879V60H25.6289V58.4879V57.0223L24.6227 57.0223ZM58.991 58.4879V59.341C59.2722 59.1056 59.5037 58.8162 59.6746 58.4879H58.991Z" fill="#FF3D00"/>
<path opacity="0.2" d="M24 16V36H15.2L32 52.6L48.8 36H40V16H24Z" fill="black"/>
<path d="M24 15V35H15.2L32 51.6L48.8 35H40V15H24Z" fill="#FF3D00"/>
<path opacity="0.2" d="M24 15V16H40V15H24ZM15.1992 35L16.2109 36H24V35H15.1992ZM40 35V36H47.7891L48.8008 35H40Z" fill="white"/>
<path opacity="0.1" d="M6.80078 4C5.24958 4 4 5.24958 4 6.80078V7.80078C4 6.24958 5.24958 5 6.80078 5H57.1992C58.7504 5 60 6.24958 60 7.80078V6.80078C60 5.24958 58.7504 4 57.1992 4H6.80078Z" fill="white"/>
</svg>
